<?xml version="1.0" standalone="no"?>
<!DOCTYPE svg PUBLIC "-//W3C//DTD SVG 20010904//EN"
 "http://www.w3.org/TR/2001/REC-SVG-20010904/DTD/svg10.dtd">
<svg version="1.0" xmlns="http://www.w3.org/2000/svg"
 width="2096.000000pt" height="542.000000pt" viewBox="0 0 2096.000000 542.000000"
 preserveAspectRatio="xMidYMid meet">

<g transform="translate(0.000000,542.000000) scale(0.100000,-0.100000)"
fill="#000000" stroke="none">
<path d="M384 5375 c-42 -45 -80 -125 -101 -217 -13 -53 -25 -80 -45 -100 -44
-41 -71 -113 -75 -198 -4 -57 -12 -90 -35 -138 -19 -42 -32 -85 -35 -125 -2
-34 -13 -83 -24 -109 -13 -32 -19 -71 -19 -121 0 -46 -6 -89 -16 -113 -15 -37
-22 -119 -16 -219 1 -27 -3 -73 -10 -102 -9 -40 -9 -66 1 -121 7 -38 14 -105
15 -148 5 -121 23 -249 40 -283 9 -17 15 -43 14 -58 -4 -60 3 -92 27 -127 17
-25 25 -51 25 -79 0 -23 11 -65 24 -92 12 -28 28 -73 35 -102 7 -28 24 -66 38
-85 13 -18 36 -58 49 -88 14 -30 40 -71 58 -90 19 -19 36 -47 40 -61 3 -15 23
-42 43 -61 21 -18 45 -47 53 -62 8 -16 35 -43 59 -60 24 -17 64 -50 90 -72 25
-23 62 -49 81 -59 19 -10 43 -29 54 -43 19 -23 108 -72 133 -72 7 0 32 -14 55
-30 116 -82 355 -79 537 6 40 18 75 34 78 34 2 0 -16 -38 -41 -85 -24 -47 -40
-85 -35 -85 12 0 -37 -98 -64 -128 -18 -19 -18 -22 -4 -22 25 0 21 -14 -14
-51 -32 -35 -27 -49 19 -49 l24 0 -30 -55 -30 -55 24 0 c24 0 24 0 -10 -47
-18 -27 -37 -59 -41 -73 -11 -36 -63 -127 -108 -187 -30 -40 -49 -55 -78 -63
-38 -10 -41 -9 -89 31 -28 23 -50 46 -50 51 0 5 -16 16 -36 24 -42 18 -83 8
-122 -29 l-24 -22 -32 39 c-98 124 -220 258 -291 320 -78 68 -181 134 -191
123 -3 -3 10 -29 30 -59 37 -56 76 -155 76 -195 0 -23 -1 -23 -110 -23 l-110
0 0 -25 c0 -17 9 -29 30 -40 74 -38 247 -226 349 -378 51 -76 81 -100 111 -89
8 3 34 26 57 51 l42 46 33 -33 c18 -18 40 -54 48 -79 8 -27 24 -52 35 -58 11
-5 30 -20 43 -33 12 -12 28 -22 35 -22 8 0 22 -9 32 -20 13 -14 31 -20 61 -20
33 0 59 -10 109 -40 74 -45 233 -126 315 -160 30 -13 59 -27 64 -31 15 -13
-86 -190 -140 -246 -46 -49 -49 -54 -34 -68 26 -24 124 -19 194 10 l59 24 -41
-42 c-23 -24 -42 -46 -42 -51 0 -16 174 -1 215 19 22 10 45 21 50 24 6 2 -7
-17 -28 -42 l-38 -46 25 -7 c38 -9 154 14 209 42 27 13 51 24 53 24 3 0 -9
-20 -26 -45 l-31 -44 27 -7 c42 -11 147 2 196 24 62 27 121 88 154 160 l27 59
34 -68 c36 -72 78 -116 145 -150 46 -23 137 -35 192 -25 l36 7 -30 41 c-17 23
-28 43 -26 45 2 2 19 -5 39 -17 33 -20 149 -50 192 -50 11 0 27 5 35 10 12 8
12 12 -6 32 -49 56 -48 57 13 32 42 -17 78 -24 129 -24 39 0 74 3 78 7 3 4
-12 26 -35 49 l-42 43 59 -24 c66 -28 159 -33 188 -12 17 13 16 17 -25 59 -50
51 -156 235 -143 247 5 4 32 16 59 26 76 28 243 107 322 153 47 28 83 42 107
42 23 0 44 8 62 25 15 14 33 25 40 25 8 0 19 9 26 20 7 11 21 20 30 20 20 0
43 32 52 73 4 15 23 45 43 67 l36 40 48 -45 c26 -25 51 -45 54 -45 26 0 69 40
101 92 75 123 278 344 352 382 23 12 32 23 32 41 l0 25 -114 0 -114 0 14 60
c14 60 43 124 85 188 11 17 18 32 14 32 -4 0 -35 -15 -69 -32 -77 -42 -256
-213 -368 -354 -78 -99 -83 -103 -103 -89 -67 50 -111 42 -197 -35 -55 -49
-81 -58 -119 -42 -16 7 -99 105 -99 117 0 3 -12 24 -26 46 -14 23 -32 59 -40
81 -7 22 -28 57 -45 79 -30 39 -30 43 3 40 15 -2 14 3 -7 41 -32 55 -31 61 7
76 l32 12 -32 33 c-35 36 -42 60 -14 50 16 -6 16 -5 1 13 -35 42 -78 133 -66
137 9 3 7 9 -4 23 -15 17 -89 157 -89 168 0 2 35 -14 78 -35 107 -54 187 -73
307 -73 116 0 198 20 247 62 18 15 60 36 93 46 41 13 71 30 95 55 19 20 52 45
73 56 22 11 49 31 60 45 12 14 38 36 59 48 20 12 52 41 72 65 20 23 54 61 76
83 22 23 43 56 46 73 4 18 15 36 25 42 20 10 79 105 79 126 0 7 16 33 35 58
19 25 37 62 40 83 4 20 17 62 30 92 13 30 27 75 31 100 3 25 17 67 30 94 16
33 24 68 24 102 0 28 7 69 16 89 25 61 47 286 46 485 0 234 -7 356 -22 380 -9
16 -15 55 -15 110 -1 64 -6 94 -20 120 -11 20 -22 66 -25 106 -4 46 -16 91
-32 125 -18 37 -28 79 -32 132 -7 89 -32 157 -76 202 -20 21 -33 50 -44 100
-21 90 -65 181 -110 224 -20 19 -37 33 -40 30 -2 -2 3 -40 11 -84 37 -205 -29
-524 -143 -697 -59 -89 -205 -233 -296 -294 -82 -55 -237 -128 -378 -179 -204
-73 -256 -111 -349 -249 -110 -164 -163 -202 -270 -194 -42 3 -44 5 -48 37 -4
37 -27 81 -43 81 -6 0 -6 7 1 18 7 12 9 36 5 64 -6 38 -12 47 -39 60 l-32 16
28 12 c30 14 36 30 12 30 -19 0 -65 44 -65 62 0 7 18 21 40 30 47 19 52 38 11
38 -33 0 -90 39 -58 40 28 0 73 27 90 54 l17 25 -34 -6 c-28 -4 -40 0 -75 32
-45 41 -55 69 -66 179 -8 77 -29 158 -51 192 -14 20 -13 24 11 49 26 29 33 69
14 80 -6 4 -7 20 -4 38 6 26 5 30 -6 20 -22 -21 -24 -16 -21 52 2 36 1 65 -3
65 -3 0 -18 -14 -32 -30 -47 -56 -65 -60 -255 -58 l-173 3 -78 -32 c-73 -29
-78 -30 -87 -13 -6 10 -10 35 -10 54 0 43 -13 46 -36 8 -15 -27 -20 -29 -68
-24 l-51 5 19 -22 c19 -21 19 -21 0 -21 -10 0 -26 -5 -34 -10 -13 -8 -12 -11
3 -23 18 -12 17 -14 -7 -25 -28 -12 -35 -32 -13 -32 8 0 22 -9 31 -19 17 -19
17 -20 -18 -26 -107 -21 -216 -160 -216 -277 l0 -32 38 36 c46 45 134 87 200
95 50 6 152 -12 152 -27 0 -24 -111 -44 -170 -31 -51 11 -59 8 -39 -15 12 -15
11 -16 -19 -10 -43 10 -43 -12 1 -60 44 -48 91 -56 229 -42 100 11 108 11 128
-7 49 -44 -1 -114 -85 -118 -40 -2 -44 -11 -15 -29 31 -20 24 -31 -16 -25 -32
5 -35 4 -32 -16 2 -13 16 -29 37 -39 l33 -16 -38 -11 c-22 -6 -52 -11 -68 -11
l-29 0 22 -24 c13 -14 37 -30 53 -37 l30 -12 -28 -15 c-16 -9 -48 -15 -71 -15
l-42 0 17 -29 c17 -29 16 -30 -7 -49 -13 -10 -39 -19 -60 -20 l-36 0 32 -16
c30 -15 32 -19 27 -53 -4 -22 -1 -47 6 -60 16 -30 0 -40 -63 -40 -90 0 -142
43 -240 196 -83 130 -150 179 -332 243 -236 83 -373 157 -502 269 -198 173
-290 339 -328 596 -21 147 -18 289 10 377 10 30 -14 23 -51 -16z m30 -490 c60
-229 183 -406 386 -557 108 -80 218 -132 537 -252 96 -36 150 -87 239 -222 41
-62 88 -124 104 -138 34 -28 87 -46 138 -46 27 0 32 -3 32 -25 l0 -25 -145 0
-145 0 0 -211 c0 -131 -4 -208 -10 -204 -8 5 -130 -81 -130 -93 0 -4 70 35
118 66 37 24 28 -11 -13 -47 -41 -36 -37 -41 7 -10 l29 21 -3 -53 c-3 -50 -5
-54 -30 -57 -30 -4 -71 14 -64 27 3 4 -12 13 -33 20 -44 13 -66 34 -57 56 3
10 -1 15 -14 15 -23 0 -82 49 -77 64 2 6 -9 16 -24 23 -15 6 -35 25 -44 42
-14 29 -14 31 2 31 14 0 12 4 -7 17 -28 19 -42 38 -52 71 -5 19 -2 22 20 23
25 0 25 1 6 9 -31 12 -64 58 -64 89 0 20 -2 23 -10 11 -16 -25 -11 -69 10 -90
13 -13 20 -33 20 -60 0 -31 5 -43 25 -56 17 -11 25 -26 25 -44 0 -29 22 -54
55 -64 12 -3 25 -20 30 -39 8 -24 18 -34 43 -42 21 -6 35 -17 38 -32 7 -27 40
-53 66 -53 9 0 29 -12 43 -26 22 -22 33 -25 61 -21 l34 6 0 -77 c0 -70 -3 -82
-35 -135 -44 -73 -44 -80 0 -31 l36 39 -3 -118 c-4 -136 6 -120 -130 -202
-102 -62 -249 -122 -372 -151 -87 -20 -92 -23 -41 -18 156 16 358 91 494 184
l62 42 -3 -28 c-2 -23 -15 -34 -73 -66 -82 -45 -248 -111 -331 -133 -164 -43
-342 -40 -448 8 l-48 22 118 -3 c133 -4 286 15 386 48 111 37 242 107 305 165
33 30 63 52 65 49 3 -3 6 6 6 19 0 23 -4 24 -42 20 -31 -4 -47 -1 -59 12 -16
15 -18 15 -26 -8 -22 -56 -251 -161 -466 -213 -92 -22 -95 -24 -39 -19 128 12
345 86 469 161 60 35 75 40 75 25 0 -32 -167 -127 -300 -171 -154 -52 -352
-71 -469 -46 -71 15 -145 50 -169 79 -11 13 -5 13 45 1 35 -8 117 -14 209 -14
127 0 167 4 246 24 160 41 319 118 401 194 36 34 34 40 -10 32 -21 -3 -52 -2
-70 2 -27 7 -35 5 -56 -16 -36 -36 -153 -92 -249 -120 -78 -22 -198 -42 -313
-50 -27 -2 15 -2 95 0 81 2 176 10 215 19 71 15 212 77 267 116 34 24 49 18
24 -10 -40 -44 -225 -116 -379 -147 -60 -12 -112 -15 -206 -11 -154 6 -242 31
-297 82 -42 39 -40 54 3 32 63 -32 137 -42 313 -41 161 0 182 2 265 27 115 35
248 100 275 135 l22 27 -37 6 c-20 3 -43 13 -52 22 -15 14 -18 14 -34 -8 -12
-15 -63 -39 -143 -69 -163 -60 -200 -67 -331 -68 -83 -1 -100 -3 -70 -9 22 -4
81 -8 131 -8 108 -1 199 20 341 78 106 44 113 46 113 32 0 -15 -177 -91 -267
-113 -119 -30 -366 -32 -458 -5 -88 27 -150 62 -179 100 -39 51 -32 56 32 26
102 -50 181 -64 342 -63 122 1 161 6 245 28 97 25 246 92 249 110 0 5 -12 13
-28 17 -15 4 -36 15 -46 24 -17 16 -20 15 -47 -4 -77 -56 -343 -99 -499 -81
-48 5 -90 8 -92 6 -12 -13 131 -29 243 -28 134 1 222 15 329 52 57 19 80 20
60 1 -18 -17 -151 -59 -244 -76 -54 -10 -143 -18 -205 -19 -95 0 -121 4 -194
29 -129 44 -230 118 -254 188 -5 13 4 9 31 -12 48 -39 143 -78 240 -98 109
-22 357 -13 460 16 75 22 166 63 176 80 3 5 -10 12 -30 16 -20 3 -48 18 -62
32 -23 23 -24 27 -9 38 19 14 12 25 -15 25 -11 0 -32 13 -48 28 -26 27 -29 28
-43 12 -15 -18 -45 -24 -193 -39 -114 -12 -210 0 -298 35 -71 28 -94 28 -50
-1 90 -59 228 -75 427 -50 89 11 142 14 148 8 20 -20 -102 -45 -247 -50 -169
-6 -257 9 -361 64 -142 74 -206 140 -232 237 l-10 40 42 -41 c84 -80 209 -150
334 -185 130 -36 338 -28 456 19 44 18 47 28 10 36 -39 8 -64 29 -66 54 l-1
21 -22 -23 c-57 -61 -405 -28 -516 49 -26 19 -42 21 -32 5 12 -21 147 -78 220
-95 54 -12 110 -15 209 -12 98 2 135 0 135 -9 0 -17 -90 -33 -189 -33 -206 0
-442 103 -550 240 -35 45 -78 146 -67 157 2 3 26 -17 53 -43 62 -60 155 -130
215 -160 26 -13 91 -36 145 -50 126 -35 333 -40 397 -11 l40 18 -35 18 c-21
11 -38 30 -44 49 -10 30 -11 31 -24 10 -12 -20 -18 -20 -118 -14 -131 9 -222
32 -338 85 -72 33 -84 37 -60 17 45 -36 142 -82 214 -101 35 -9 119 -19 187
-22 111 -5 123 -8 128 -26 5 -19 1 -19 -127 -14 -234 9 -407 78 -548 217 -69
68 -104 139 -97 196 3 25 4 24 38 -21 84 -113 258 -221 430 -266 63 -17 115
-23 202 -23 127 -1 158 9 114 37 -13 9 -29 32 -36 52 -10 31 -13 33 -26 20
-19 -19 -30 -19 -140 0 -159 28 -254 65 -343 135 -29 23 -55 40 -57 37 -12
-11 106 -101 180 -137 96 -47 173 -68 279 -77 63 -5 80 -10 88 -26 11 -19 8
-19 -73 -12 -253 22 -469 131 -598 304 -59 79 -80 134 -80 215 l0 60 59 -91
c149 -225 366 -354 643 -378 42 -4 81 -4 87 -1 6 4 1 20 -14 43 -14 20 -25 41
-25 47 0 7 -23 11 -58 12 -69 2 -208 47 -288 95 -31 19 -89 64 -129 102 -40
37 -76 67 -80 67 -9 0 36 -62 79 -109 79 -86 253 -170 388 -186 37 -5 59 -12
63 -23 3 -8 4 -17 2 -19 -7 -7 -165 28 -235 51 -162 55 -262 128 -360 261 -55
74 -85 134 -107 208 -18 62 -22 158 -7 196 8 21 9 20 21 -20 23 -77 109 -232
170 -305 136 -163 368 -284 547 -284 36 0 36 0 14 18 -13 11 -23 33 -27 59 -5
36 -8 40 -19 28 -12 -12 -22 -11 -67 5 -148 52 -264 127 -373 242 -52 56 -71
72 -58 49 29 -52 142 -169 204 -211 69 -47 159 -92 228 -114 51 -17 69 -36 34
-36 -33 0 -126 32 -197 67 -86 43 -198 127 -246 185 -131 159 -222 380 -203
492 10 65 17 64 30 -3 17 -83 59 -171 135 -281 90 -132 187 -214 354 -298 80
-40 172 -72 207 -72 18 0 18 2 4 22 -9 12 -16 42 -16 65 0 40 -2 43 -23 38
-73 -19 -320 153 -432 299 -27 35 -54 65 -58 65 -5 1 4 -22 20 -51 59 -109
236 -255 398 -329 38 -17 65 -35 65 -44 0 -23 -26 -18 -117 25 -111 52 -191
110 -284 206 -97 101 -160 197 -200 304 -27 72 -32 99 -33 180 0 54 5 114 13
140 l14 45 23 -93 c54 -217 216 -461 398 -599 59 -45 227 -133 252 -133 10 0
10 8 -2 35 -7 19 -14 55 -14 80 0 39 -3 45 -20 45 -56 0 -214 119 -303 227
-32 39 -80 108 -107 154 -60 98 -64 88 -12 -25 68 -144 192 -277 355 -380 31
-20 57 -44 57 -52 0 -20 -13 -16 -109 39 -262 148 -481 521 -484 822 0 70 4
100 20 136 29 65 43 70 43 16 0 -154 88 -408 199 -577 99 -150 328 -339 413
-340 16 0 16 3 2 37 -10 22 -14 51 -10 72 5 35 3 37 -56 71 -77 45 -199 172
-318 334 -51 69 -94 126 -96 126 -7 0 87 -154 134 -220 56 -79 186 -216 253
-267 34 -25 49 -44 49 -60 0 -13 -4 -23 -8 -23 -24 0 -146 91 -213 159 -123
123 -201 256 -264 444 -68 207 -66 387 7 534 l23 46 6 -164 c5 -131 12 -184
33 -264z m4075 377 c57 -112 66 -313 22 -474 -68 -249 -226 -483 -408 -606
-84 -57 -93 -60 -93 -29 0 18 14 36 55 67 63 49 165 155 223 232 50 66 152
228 152 241 0 5 -32 -35 -71 -89 -150 -207 -270 -333 -357 -375 -41 -20 -43
-23 -38 -55 4 -20 1 -47 -9 -70 -8 -20 -13 -39 -10 -42 10 -10 79 20 145 63
190 122 345 334 425 580 28 86 55 226 55 283 0 29 2 32 14 23 26 -22 46 -102
46 -186 0 -290 -218 -665 -475 -817 -106 -62 -115 -65 -115 -39 0 12 4 21 9
21 22 0 162 104 229 170 83 83 148 177 187 269 30 73 27 94 -6 29 -87 -171
-333 -414 -428 -421 -18 -1 -21 -8 -21 -42 -1 -22 -7 -57 -14 -77 -8 -21 -9
-38 -4 -38 20 0 159 70 219 110 190 128 374 395 431 624 24 99 30 96 49 -24
10 -55 9 -81 -6 -151 -18 -91 -64 -200 -116 -275 -88 -129 -255 -271 -391
-334 -90 -41 -118 -47 -118 -24 1 14 22 29 78 54 109 50 186 102 270 183 74
72 137 158 130 178 -2 6 -16 -7 -32 -30 -44 -63 -188 -196 -271 -250 -80 -52
-162 -85 -187 -76 -12 5 -16 -5 -20 -46 -4 -35 -12 -57 -24 -66 -17 -12 -16
-13 7 -13 68 0 218 65 343 149 95 63 170 140 241 246 66 100 100 177 120 269
l12 61 8 -39 c13 -63 -1 -168 -33 -250 -77 -196 -228 -368 -402 -456 -55 -28
-177 -70 -203 -70 -37 0 -11 21 53 44 85 30 142 59 216 112 67 47 168 153 197
205 14 25 2 15 -42 -32 -106 -116 -228 -199 -376 -254 -43 -17 -66 -20 -78
-14 -14 8 -17 6 -17 -11 0 -26 -25 -77 -42 -83 -28 -12 71 -6 134 8 93 19 173
53 256 109 164 109 273 256 357 481 13 37 27 -24 22 -100 -8 -128 -78 -264
-202 -391 -58 -59 -99 -91 -150 -117 -77 -38 -206 -81 -275 -91 -25 -4 -57 -9
-72 -12 -23 -5 -26 -2 -21 15 3 14 14 21 29 21 97 0 276 68 371 141 47 37 133
135 133 153 0 4 -33 -22 -72 -59 -94 -86 -163 -127 -275 -165 -110 -36 -182
-48 -192 -31 -5 7 -12 -4 -19 -27 -7 -22 -19 -45 -27 -52 -32 -27 -16 -33 71
-26 286 23 502 150 654 382 28 43 54 81 57 84 3 3 4 -27 1 -66 -5 -107 -46
-181 -157 -287 -141 -133 -305 -203 -523 -222 -43 -4 -78 -3 -78 2 1 22 22 30
95 36 98 8 212 39 285 78 63 34 170 115 170 129 0 5 -24 -8 -52 -30 -29 -22
-77 -52 -107 -66 -103 -50 -360 -101 -375 -75 -10 16 -26 13 -26 -5 0 -9 -15
-31 -34 -50 l-34 -34 26 -8 c50 -14 224 -7 302 13 97 24 212 72 283 119 31 21
91 74 133 119 l77 82 -6 -47 c-14 -105 -90 -197 -226 -278 -134 -79 -286 -120
-450 -120 -92 0 -99 1 -94 19 4 16 19 19 127 24 138 6 224 25 305 67 57 29
151 90 140 90 -4 0 -53 -22 -110 -50 -117 -56 -193 -76 -325 -86 -100 -7 -134
-1 -134 24 -1 9 -7 2 -15 -16 -8 -18 -28 -40 -45 -50 -16 -9 -30 -20 -30 -23
0 -4 21 -13 48 -20 67 -20 260 -17 342 5 187 49 257 86 379 201 62 59 71 65
71 44 -1 -67 -72 -168 -165 -234 -160 -115 -406 -170 -589 -134 -100 21 -61
33 95 30 119 -2 158 2 223 19 80 20 196 76 204 98 2 6 -16 0 -41 -13 -108 -61
-265 -92 -406 -80 -69 6 -88 11 -107 31 -22 21 -24 21 -24 4 0 -25 -26 -50
-61 -57 -16 -3 -29 -9 -29 -13 0 -20 127 -53 250 -65 178 -18 411 62 559 192
39 34 51 40 51 27 0 -32 -41 -103 -85 -147 -57 -56 -202 -132 -291 -153 -136
-32 -498 0 -464 41 7 9 26 8 82 -1 123 -22 257 -27 328 -14 78 14 152 44 177
72 18 21 18 21 -5 9 -97 -51 -228 -73 -355 -60 -150 15 -179 21 -198 40 -18
18 -19 18 -28 0 -6 -10 -30 -26 -53 -36 -41 -16 -42 -17 -23 -31 52 -38 147
-56 322 -61 157 -5 177 -4 244 17 89 27 190 76 252 124 54 41 59 31 17 -40
-49 -86 -167 -158 -309 -190 -117 -26 -346 -11 -488 33 -29 9 -53 20 -53 25 0
10 -8 11 96 -12 177 -40 395 -36 484 10 63 32 55 40 -13 12 -113 -46 -308 -42
-466 10 -43 14 -65 27 -68 39 -5 18 -7 18 -30 -5 -13 -13 -42 -27 -64 -31
l-41 -7 35 -24 c91 -62 242 -94 436 -94 180 0 316 36 424 112 32 23 34 17 7
-27 -36 -58 -143 -123 -265 -161 -76 -23 -244 -24 -367 0 -134 25 -265 73
-247 90 2 2 37 -6 76 -19 109 -36 185 -47 323 -48 106 0 240 16 227 29 -2 2
-43 -1 -92 -7 -147 -16 -386 21 -480 76 -40 23 -41 23 -64 4 -13 -10 -31 -19
-42 -19 -67 0 24 -63 151 -104 123 -40 188 -50 330 -50 151 -1 233 16 333 65
61 31 67 29 39 -14 -107 -161 -538 -183 -835 -43 -42 20 -77 41 -77 46 0 15
17 12 58 -9 21 -11 85 -36 142 -56 91 -32 120 -38 220 -42 63 -3 133 0 155 5
34 8 25 10 -62 10 -56 0 -128 6 -159 12 -94 20 -286 97 -311 124 -18 22 -23
23 -33 10 -7 -8 -30 -17 -51 -20 -22 -4 -39 -10 -39 -14 0 -34 174 -125 310
-162 75 -20 106 -23 265 -22 181 0 213 5 319 49 40 17 -14 -42 -64 -69 -100
-55 -309 -73 -468 -40 -163 33 -376 122 -390 163 -6 17 17 13 48 -9 15 -11 66
-38 112 -60 111 -54 250 -81 401 -78 62 1 85 3 52 5 -219 11 -468 86 -555 169
-22 20 -31 22 -57 15 -18 -5 -48 -6 -70 -1 -20 5 -39 7 -41 6 -1 -2 21 -25 50
-51 63 -57 240 -145 353 -176 103 -28 399 -38 482 -16 58 16 62 5 9 -31 -61
-41 -122 -55 -251 -55 -225 -1 -452 67 -608 181 -80 58 -40 57 74 -2 148 -78
374 -148 466 -145 15 0 -3 7 -42 16 -200 42 -450 150 -491 210 -19 29 -23 31
-35 17 -10 -12 -25 -15 -57 -11 -33 4 -42 2 -38 -8 3 -8 -2 -19 -10 -25 -12
-11 -14 3 -14 96 l1 109 40 -45 40 -45 -32 60 c-18 33 -36 64 -41 69 -4 6 -8
45 -8 88 0 75 1 78 19 68 32 -16 60 -12 87 15 14 14 34 25 44 25 26 0 60 34
60 60 0 14 7 20 23 20 29 0 67 34 67 60 0 13 9 22 25 26 31 8 55 40 55 72 0
14 11 33 25 44 18 14 25 29 25 56 0 23 8 44 21 58 18 19 20 29 14 61 l-8 38
-9 -35 c-11 -40 -33 -68 -63 -81 -19 -7 -19 -8 3 -8 33 -1 28 -37 -12 -77 -18
-18 -28 -35 -22 -37 18 -6 -14 -55 -45 -69 -15 -7 -25 -16 -22 -21 9 -15 -39
-57 -75 -63 -19 -4 -29 -10 -23 -14 28 -17 -36 -70 -86 -70 -15 0 -15 -2 -3
-10 11 -7 9 -11 -13 -19 -64 -25 -87 -11 -87 51 l0 50 38 -23 37 -22 -37 39
-38 40 0 222 0 222 -160 0 c-131 0 -160 3 -160 14 0 8 -2 20 -5 28 -4 10 12
13 73 13 109 0 138 21 235 167 118 179 133 191 352 274 198 74 354 151 438
215 282 214 417 492 417 862 0 59 2 107 5 107 2 0 13 -17 24 -38z m-1855 -390
c-11 -15 -34 -34 -52 -42 -45 -22 -39 -33 13 -26 54 9 58 0 9 -20 -44 -18 -38
-26 24 -34 l47 -6 -45 -14 c-25 -7 -47 -15 -48 -16 -2 -1 14 -18 36 -38 47
-43 69 -104 78 -221 7 -97 33 -157 80 -185 46 -29 44 -44 -3 -35 -49 8 -110
49 -131 86 -18 31 -32 38 -32 15 0 -8 -5 -27 -11 -43 l-11 -28 -37 42 -38 42
-33 -47 c-32 -46 -33 -46 -49 -25 -9 11 -21 29 -28 39 -11 18 -12 18 -28 -4
-9 -12 -26 -32 -38 -43 l-22 -20 -3 30 c-4 34 -13 39 -32 16 -17 -21 -30 -19
-30 6 0 11 -4 17 -10 14 -5 -3 -10 -15 -10 -27 0 -28 -62 -88 -91 -88 -21 0
-19 2 11 19 32 17 80 87 80 117 0 7 -12 26 -26 41 -18 20 -24 23 -20 9 5 -14
3 -17 -11 -11 -41 17 -60 17 -154 5 -103 -14 -163 -6 -188 23 -9 11 3 13 67 9
67 -4 85 -1 123 18 63 32 149 88 149 97 0 5 -31 9 -69 10 -38 2 -81 7 -95 13
-15 5 -62 10 -104 10 -80 0 -131 -16 -193 -61 -33 -23 -35 -17 -14 34 35 83
115 143 206 154 27 3 49 7 49 9 0 1 -19 22 -42 45 l-42 42 32 -6 c30 -6 44 5
22 18 -5 3 -10 11 -10 17 0 7 5 6 15 -2 21 -17 33 15 16 44 -10 18 -9 17 9 -3
11 -13 20 -30 20 -38 0 -28 25 -6 31 28 5 27 7 29 8 9 3 -58 39 -63 126 -19
l60 30 180 -3 c178 -3 181 -3 225 23 25 14 47 24 49 22 3 -2 -4 -16 -15 -31z
m-594 -392 c-19 -11 -39 -19 -45 -19 -5 0 6 8 25 19 19 11 40 19 45 19 6 0 -6
-8 -25 -19z m-63 -26 c-3 -3 -12 -4 -19 -1 -8 3 -5 6 6 6 11 1 17 -2 13 -5z
m565 -219 l4 -36 -25 25 c-20 21 -22 27 -12 40 18 22 28 13 33 -29z m-156 -25
c5 -24 6 -24 19 -6 8 10 12 24 8 30 -4 7 -2 7 6 0 10 -9 10 -17 1 -34 -14 -26
-27 -23 -53 13 -18 23 -18 28 -6 43 13 16 14 16 17 -2 1 -10 5 -30 8 -44z
m279 39 c11 -17 -1 -21 -15 -4 -8 9 -8 15 -2 15 6 0 14 -5 17 -11z m-395 -63
c-16 -16 -22 -17 -34 -6 -18 14 -21 40 -6 40 6 0 10 -9 10 -20 0 -29 17 -24
25 7 5 21 8 24 15 12 6 -9 3 -20 -10 -33z m320 35 c0 -5 -7 -14 -15 -21 -12
-10 -15 -10 -15 2 0 8 3 18 7 21 9 10 23 9 23 -2z m110 -1 c0 -5 -5 -10 -11
-10 -5 0 -7 5 -4 10 3 6 8 10 11 10 2 0 4 -4 4 -10z m-224 -90 c4 -10 10 -4
20 19 8 18 11 38 7 45 -4 6 1 5 10 -3 22 -17 21 -23 -4 -55 -20 -26 -22 -26
-40 -10 -26 23 -33 52 -17 71 11 14 13 12 16 -18 1 -19 5 -41 8 -49z m142 18
c-4 -22 -5 -22 -18 4 -11 23 -11 30 1 44 13 16 14 16 17 -4 2 -12 2 -32 0 -44z
m62 21 c0 -4 -11 -21 -25 -36 l-26 -28 16 39 c8 21 12 43 8 50 -4 6 1 5 10 -3
9 -7 17 -17 17 -22z m87 -19 c13 0 14 2 2 17 -11 13 -8 13 13 -2 37 -27 35
-39 -4 -31 -36 7 -68 32 -68 54 0 9 8 5 21 -12 11 -14 27 -26 36 -26z m-562
16 c15 -22 15 -27 1 -55 -22 -42 -37 -48 -26 -12 5 17 11 35 15 40 3 6 1 20
-5 31 -15 28 -4 25 15 -4z m126 -50 c6 -6 9 -3 9 10 1 25 26 59 35 45 5 -10
-29 -71 -40 -71 -2 0 -13 14 -25 30 -19 26 -20 33 -8 47 11 14 13 12 16 -18 2
-19 8 -38 13 -43z m-171 12 c-1 -40 -2 -42 -15 -24 -20 26 -19 66 0 66 11 0
15 -11 15 -42z m-60 12 c0 -5 -9 -10 -19 -10 -11 0 -23 5 -26 10 -4 6 5 10 19
10 14 0 26 -4 26 -10z m201 -59 c-5 -9 -18 -24 -28 -34 -19 -16 -21 -16 -41 6
-20 21 -20 25 -7 43 14 18 14 17 15 -13 0 -45 14 -48 29 -7 10 28 10 38 0 52
-8 9 -1 6 13 -7 20 -17 25 -28 19 -40z m309 9 c0 -4 -10 -20 -22 -35 l-22 -28
-23 29 c-27 34 -29 47 -8 64 13 11 15 7 15 -28 0 -23 4 -43 8 -46 12 -7 35 63
25 77 -4 7 0 4 10 -6 9 -11 17 -23 17 -27z m-204 -40 c3 -10 11 -1 23 25 11
25 20 35 25 27 8 -13 -5 -42 -27 -61 -12 -9 -19 -7 -36 15 -24 31 -26 45 -8
63 10 10 13 6 15 -21 1 -18 5 -40 8 -48z m290 20 c4 -10 10 -5 20 18 7 18 18
31 24 27 11 -7 0 -35 -23 -54 -12 -9 -19 -7 -36 15 -17 22 -19 30 -9 42 11 13
13 12 16 -9 2 -13 5 -31 8 -39z m-581 11 c-3 -5 -19 -12 -35 -16 -35 -8 -40
-24 -7 -26 20 -2 21 -2 1 -6 -11 -2 -34 1 -50 8 l-29 11 55 18 c66 22 73 23
65 11z m665 -21 c6 -11 8 -20 6 -20 -3 0 -10 9 -16 20 -6 11 -8 20 -6 20 3 0
10 -9 16 -20z m-624 -90 c4 -11 9 -9 19 10 7 14 11 28 9 32 -3 5 -1 8 5 8 6 0
8 8 4 18 -5 16 -5 16 12 0 17 -16 17 -18 -5 -53 -26 -42 -37 -41 -68 5 -21 32
-21 34 -5 53 18 19 18 18 21 -19 1 -22 5 -46 8 -54z m234 49 c0 -4 -11 -21
-25 -36 l-26 -28 16 39 c12 31 13 42 3 55 -8 10 -5 9 10 -3 12 -11 22 -23 22
-27z m96 -39 c4 -10 10 -4 20 19 8 18 11 38 7 45 -4 6 1 5 10 -3 22 -17 21
-30 -4 -60 -19 -23 -20 -23 -39 -6 -27 24 -34 53 -18 72 11 14 13 12 16 -18 1
-19 5 -41 8 -49z m150 1 c6 -19 23 -2 29 29 6 30 13 36 21 17 7 -18 -24 -69
-39 -64 -6 2 -19 15 -30 29 -17 22 -17 28 -6 49 14 24 14 24 17 -11 1 -19 5
-41 8 -49z m-306 33 c0 -31 -2 -35 -15 -24 -16 13 -20 42 -8 53 15 15 23 5 23
-29z m444 11 c11 -8 15 -15 10 -15 -6 0 -19 7 -30 15 -10 8 -14 14 -9 14 6 0
19 -6 29 -14z m41 -5 c3 -5 1 -10 -4 -10 -6 0 -11 5 -11 10 0 6 2 10 4 10 3 0
8 -4 11 -10z m-55 -66 c0 -12 -8 -32 -18 -44 l-17 -21 -23 31 c-21 28 -22 32
-7 52 15 22 15 22 15 -12 0 -19 4 -41 9 -48 12 -19 35 40 26 70 -5 18 -4 20 4
8 6 -8 11 -25 11 -36z m-510 3 c0 -49 11 -52 30 -10 12 29 18 33 23 21 3 -10
-3 -28 -15 -43 l-20 -26 -24 22 c-23 22 -31 49 -17 62 14 15 23 5 23 -26z
m166 -47 c4 -10 10 -4 20 19 8 18 11 38 8 45 -4 6 1 4 11 -6 17 -16 17 -18 -5
-48 -21 -30 -23 -30 -41 -14 -26 23 -33 52 -17 71 11 14 13 12 16 -18 1 -19 5
-41 8 -49z m150 0 c3 -10 11 -1 23 25 11 25 20 35 25 27 8 -13 -5 -42 -27 -61
-12 -10 -19 -6 -37 18 -18 27 -19 33 -8 53 13 22 13 22 16 -12 1 -19 5 -42 8
-50z m264 50 c12 -8 11 -10 -7 -10 -12 0 -27 9 -33 21 -10 18 -10 19 7 10 10
-6 25 -15 33 -21z m-745 0 c-20 -22 -73 -35 -104 -25 -28 8 -19 22 18 27 17 2
28 1 25 -4 -8 -12 8 -9 36 7 36 20 46 18 25 -5z m55 -33 c0 -7 -9 -23 -19 -37
-19 -24 -20 -24 -40 -6 -11 10 -18 23 -14 29 3 5 11 0 18 -13 11 -21 12 -21
20 -4 10 22 12 30 14 45 1 14 21 1 21 -14z m90 -56 c-5 -10 -16 -24 -25 -31
-15 -12 -19 -11 -36 10 -21 27 -21 51 -1 58 8 2 12 -8 12 -32 0 -20 4 -36 8
-36 12 0 32 62 24 75 -4 6 1 2 10 -8 13 -13 15 -24 8 -36z m109 -8 c1 -27 20
-31 22 -5 1 9 1 20 1 24 -2 10 27 18 33 9 5 -10 -32 -61 -45 -61 -4 0 -17 14
-28 32 -16 25 -18 36 -9 46 9 12 12 11 18 -5 4 -10 8 -28 8 -40z m151 21 c0
-31 -2 -35 -15 -24 -18 15 -19 32 -3 48 17 17 18 16 18 -24z m150 0 c0 -31 -2
-35 -15 -24 -18 15 -19 32 -3 48 17 17 18 16 18 -24z m210 17 c0 -5 -9 -11
-20 -14 -23 -6 -25 -2 -7 17 12 14 27 12 27 -3z m-846 0 c18 -7 16 -9 -14 -19
-18 -7 -42 -12 -53 -12 -18 0 -17 1 4 20 26 21 34 22 63 11z m537 -30 c-6 -10
-17 -24 -26 -31 -14 -12 -15 -10 -5 15 15 40 20 46 31 40 5 -4 5 -13 0 -24z
m153 10 c3 -4 -6 -19 -19 -31 l-25 -24 11 32 c11 32 23 40 33 23z m-628 -12
c3 -6 2 -15 -4 -21 -6 -6 -11 -2 -15 11 -5 22 7 29 19 10z m199 -87 c-2 -2
-11 8 -20 22 -15 22 -15 29 -4 43 12 14 15 12 20 -23 4 -21 5 -41 4 -42z m493
6 c-24 -35 -32 -35 -56 0 -17 23 -18 30 -7 45 11 15 13 13 19 -23 3 -22 11
-40 16 -40 9 0 14 22 11 43 0 4 4 7 9 7 7 0 7 7 0 23 -10 20 -10 20 8 -3 20
-24 20 -24 0 -52z m-338 12 l-1 -25 -19 24 c-16 19 -18 27 -9 38 15 18 29 0
29 -37z m146 -19 c6 -19 23 -2 29 29 6 30 13 36 21 17 7 -18 -24 -69 -39 -64
-6 2 -20 15 -30 30 -18 23 -18 28 -6 43 13 16 14 15 17 -12 2 -16 5 -35 8 -43z
m-456 33 c0 -22 -2 -25 -15 -14 -8 7 -15 19 -15 26 0 8 7 14 15 14 10 0 15
-10 15 -26z m51 -13 c-16 -30 -38 -44 -47 -30 -4 7 -3 9 2 6 6 -3 16 8 23 24
7 16 17 27 22 23 5 -3 5 -12 0 -23z m159 16 c0 -8 -9 -22 -20 -32 -20 -18 -20
-18 -9 13 11 32 29 43 29 19z m150 1 c0 -13 -39 -68 -40 -57 0 3 5 20 11 38
11 31 29 43 29 19z m-430 -59 c0 -36 -2 -40 -15 -29 -18 15 -19 42 -3 58 17
17 18 16 18 -29z m156 -39 c4 -12 8 -11 17 5 6 11 12 26 13 33 4 22 13 26 20
9 7 -18 -24 -69 -39 -64 -6 2 -20 15 -30 30 -18 23 -18 28 -6 43 13 16 14 15
17 -12 2 -16 5 -36 8 -44z m150 10 c5 -24 6 -24 19 -6 8 10 12 23 9 27 -3 5 0
9 6 9 6 0 8 6 4 13 -5 9 -4 9 7 -1 11 -10 11 -17 -3 -39 -23 -38 -33 -39 -58
-3 -19 26 -20 33 -8 47 12 15 13 14 16 -3 1 -10 5 -30 8 -44z m165 -20 c8 0
13 23 10 43 0 4 6 7 14 7 20 0 19 -13 -5 -41 l-20 -24 -24 29 c-20 24 -22 32
-13 48 11 17 13 15 21 -22 5 -22 13 -40 17 -40z m136 10 c5 -24 6 -24 23 14
10 21 20 33 24 27 8 -12 -6 -42 -27 -59 -11 -9 -18 -5 -35 18 -19 25 -21 33
-10 50 13 21 13 21 16 -2 1 -13 5 -34 9 -48z m145 24 l4 -37 -18 23 c-14 17
-16 26 -7 36 16 19 16 19 21 -22z m-701 -3 c-6 -10 -17 -24 -26 -31 -14 -12
-15 -10 -5 15 15 40 20 46 31 40 5 -4 5 -13 0 -24z m75 -36 c15 -23 15 -27 -1
-51 -22 -33 -31 -23 -15 16 10 24 10 33 0 45 -7 8 -10 15 -6 15 3 0 13 -11 22
-25z m164 -20 c0 -17 -39 -63 -40 -47 0 7 6 21 12 32 10 16 10 24 -1 43 -14
22 -14 22 8 3 11 -11 21 -25 21 -31z m-208 -17 c3 -29 1 -35 -9 -27 -20 17
-26 49 -12 66 15 17 16 14 21 -39z m150 -1 l4 -38 -18 23 c-21 27 -22 40 -6
56 14 14 15 13 20 -41z m153 -25 c-2 -2 -11 8 -20 22 -15 22 -15 29 -4 43 12
14 15 12 20 -23 4 -21 5 -41 4 -42z m55 38 c0 -9 -10 -25 -21 -36 l-21 -19 15
36 c11 28 12 40 4 50 -10 10 -8 10 6 0 9 -7 17 -21 17 -31z m99 -25 c0 -19 -1
-19 -19 3 -16 20 -18 28 -8 45 l12 22 7 -25 c4 -14 7 -34 8 -45z m151 17 l0
-37 -19 24 c-15 19 -16 29 -8 42 16 26 27 13 27 -29z m-710 29 c0 -6 -4 -13
-10 -16 -5 -3 -10 1 -10 9 0 9 5 16 10 16 6 0 10 -4 10 -9z m755 -45 c-23 -34
-31 -26 -15 14 8 20 16 28 22 22 6 -6 3 -20 -7 -36z m-145 22 c0 -7 -7 -22
-15 -32 -12 -16 -15 -17 -15 -4 0 24 11 48 21 48 5 0 9 -6 9 -12z m-590 -33
c0 -26 -14 -33 -25 -15 -9 14 1 40 15 40 5 0 10 -11 10 -25z m-92 -7 c-7 -19
-38 -22 -38 -4 0 10 9 16 21 16 12 0 19 -5 17 -12z m552 -4 c0 -8 -5 -12 -10
-9 -6 4 -8 11 -5 16 9 14 15 11 15 -7z m150 1 c0 -8 -4 -15 -10 -15 -5 0 -7 7
-4 15 4 8 8 15 10 15 2 0 4 -7 4 -15z m-560 -5 c0 -5 -4 -10 -10 -10 -5 0 -10
5 -10 10 0 6 5 10 10 10 6 0 10 -4 10 -10z m110 6 c0 -3 -4 -8 -10 -11 -5 -3
-10 -1 -10 4 0 6 5 11 10 11 6 0 10 -2 10 -4z m45 -6 c3 -5 2 -10 -4 -10 -5 0
-13 5 -16 10 -3 6 -2 10 4 10 5 0 13 -4 16 -10z m105 6 c0 -3 -4 -8 -10 -11
-5 -3 -10 -1 -10 4 0 6 5 11 10 11 6 0 10 -2 10 -4z m50 -6 c0 -5 -4 -10 -10
-10 -5 0 -10 5 -10 10 0 6 5 10 10 10 6 0 10 -4 10 -10z m150 0 c0 -5 -5 -10
-11 -10 -5 0 -7 5 -4 10 3 6 8 10 11 10 2 0 4 -4 4 -10z m670 -490 l0 -430
-230 0 -230 0 -1 93 c-1 50 -1 114 1 140 l2 49 -34 -2 c-18 -1 -88 -2 -155 -1
l-123 1 0 290 0 290 385 0 385 0 0 -430z m-1525 157 c-25 -125 -9 -158 85
-170 67 -9 104 -31 108 -64 10 -97 8 -190 -4 -208 -12 -18 -10 -24 12 -48 23
-25 23 -27 6 -27 -11 0 -27 11 -35 24 -13 19 -14 30 -5 54 10 25 9 38 -5 69
-9 21 -22 59 -28 86 -11 45 -13 47 -47 47 -34 0 -35 0 -17 20 17 19 16 19 -28
31 -66 16 -81 37 -79 112 0 34 8 82 16 106 9 24 16 55 17 70 l0 26 10 -25 c7
-17 5 -47 -6 -103z m-1373 -299 c139 -68 163 -73 368 -72 138 0 198 5 235 16
28 9 61 19 74 24 19 6 22 4 19 -12 -4 -23 -66 -47 -179 -70 -108 -22 -269 -15
-353 15 -76 27 -82 26 -24 -4 97 -51 313 -58 487 -15 77 19 104 20 88 4 -14
-14 -144 -44 -240 -55 -144 -17 -274 -7 -367 26 -128 47 -214 113 -247 192
-21 52 -15 57 26 21 22 -18 72 -50 113 -70z m1718 -16 c0 -14 -2 -15 -10 -2
-14 23 -22 5 -29 -67 -7 -70 -15 -93 -33 -93 -7 0 -6 5 1 14 7 8 15 47 20 86
4 43 13 75 21 80 18 11 30 4 30 -18z m420 -202 l32 -89 95 -3 95 -3 -68 -50
c-37 -27 -72 -53 -77 -56 -6 -4 3 -44 21 -98 17 -50 28 -91 25 -91 -3 0 -41
25 -84 56 l-80 56 -77 -51 c-42 -27 -77 -49 -79 -47 -2 1 10 42 26 89 l30 87
-77 55 -76 55 96 0 96 0 31 81 c17 44 31 85 31 90 0 23 10 3 40 -81z m-380
-198 c0 -90 20 -176 57 -244 33 -61 132 -156 206 -198 l57 -32 0 -270 0 -270
-32 6 c-59 12 -251 112 -333 173 -237 177 -379 436 -415 758 -5 50 -10 105
-10 123 l0 32 235 0 235 0 0 -78z m1314 -57 c168 -124 413 -192 665 -183 56 1
101 2 101 0 0 -12 -101 -44 -166 -53 -165 -23 -382 27 -604 138 -102 51 -115
61 -118 86 l-3 28 49 -35 c113 -82 388 -187 481 -185 14 0 -5 8 -44 19 -147
38 -321 119 -426 196 -43 31 -48 38 -38 56 11 20 11 20 33 -5 11 -14 43 -42
70 -62z m-67 -94 c32 -22 103 -62 158 -90 133 -66 226 -85 412 -86 134 0 141
-1 121 -16 -62 -48 -259 -68 -382 -40 -123 29 -386 142 -386 166 0 8 2 15 4
15 1 0 47 -21 101 -46 124 -58 292 -114 336 -113 20 1 26 3 14 6 -68 15 -169
54 -297 116 -139 66 -148 72 -148 99 0 15 2 28 4 28 2 0 30 -18 63 -39z
m-1747 -1 c0 -15 -21 -31 -87 -64 -106 -52 -249 -110 -323 -130 -48 -13 -51
-15 -21 -15 42 -1 177 44 312 104 57 25 110 49 117 52 6 3 12 -1 12 -9 0 -18
-154 -92 -283 -137 -159 -56 -343 -60 -452 -12 -71 31 -62 39 38 33 97 -5 224
8 323 33 59 15 281 118 319 149 27 21 45 20 45 -4z m20 -119 c0 -14 -24 -31
-92 -65 -51 -25 -118 -55 -148 -66 -51 -18 -52 -19 -15 -14 22 3 91 27 153 54
63 27 107 41 100 32 -22 -26 -193 -102 -265 -117 -82 -18 -233 -18 -288 -1
l-40 12 85 7 c145 11 338 71 452 142 29 18 54 34 56 34 1 1 2 -8 2 -18z m1739
-46 c135 -68 306 -113 435 -116 l51 -1 -40 -13 c-54 -18 -194 -18 -278 0 -72
15 -252 87 -276 111 -30 28 -2 23 81 -15 87 -40 196 -77 204 -68 2 2 -24 14
-58 27 -116 42 -232 106 -222 122 4 5 10 5 17 -1 7 -5 45 -26 86 -46z m-1703
-71 c5 -19 0 -32 -22 -55 -29 -31 -15 -41 20 -14 19 14 36 12 36 -5 0 -4 -19
-19 -43 -33 -47 -28 -102 -45 -96 -31 26 57 85 164 91 164 4 0 11 -12 14 -26z
m1635 -75 c22 -45 38 -84 35 -87 -10 -9 -136 59 -136 74 0 18 19 18 44 -1 33
-25 39 -17 12 16 -28 32 -29 38 -20 63 11 29 23 17 65 -65z m-1571 -60 c0 -4
-11 -20 -25 -35 -31 -33 -26 -40 13 -20 23 12 32 13 39 3 27 -35 25 -37 -38
-37 l-62 0 6 47 c6 52 31 81 54 62 7 -6 13 -15 13 -20z m1494 -11 c9 -12 16
-38 16 -58 l0 -36 -54 -2 c-60 -2 -72 6 -51 34 14 18 15 18 46 1 42 -24 49
-13 14 23 -23 24 -26 32 -15 45 17 20 26 19 44 -7z m-1614 -27 c0 -5 -16 -30
-35 -55 -43 -57 -30 -60 19 -6 20 22 38 40 41 40 3 0 5 -13 5 -30 0 -24 -7
-33 -40 -50 -21 -11 -53 -20 -71 -20 l-31 0 27 48 c15 26 35 55 43 65 16 18
42 23 42 8z m1757 -75 c19 -32 31 -61 29 -63 -10 -10 -87 10 -111 29 -21 16
-36 68 -20 68 3 0 23 -18 46 -41 44 -44 68 -46 27 -1 -14 15 -31 37 -38 50
-11 22 -10 23 11 20 16 -2 33 -21 56 -62z m-1517 -72 c0 -4 -10 -18 -22 -31
-25 -27 -5 -33 24 -7 14 14 20 14 33 4 8 -7 15 -16 15 -21 0 -10 -66 -29 -104
-29 -28 0 -29 0 -23 48 3 26 10 60 16 75 l11 28 25 -29 c14 -17 25 -33 25 -38z
m-141 39 c-7 -10 -24 -30 -38 -45 -33 -37 -20 -35 36 3 l46 32 -7 -29 c-4 -16
-14 -35 -23 -41 -16 -13 -103 -19 -103 -7 0 3 10 28 21 55 19 43 25 49 51 49
27 0 29 -2 17 -17z m1410 -37 c6 -25 11 -58 11 -74 0 -29 0 -29 -47 -24 -57 6
-83 17 -83 37 0 25 19 27 49 6 42 -30 46 -26 15 14 l-27 36 28 29 c15 16 31
27 35 25 4 -3 13 -25 19 -49z m106 38 c16 -6 60 -92 52 -100 -2 -2 -23 -5 -47
-6 -34 -1 -47 3 -62 21 -17 22 -24 51 -12 51 3 0 20 -11 37 -24 57 -42 63 -41
25 6 -21 26 -38 49 -38 52 0 8 24 8 45 0z m-1702 -94 c-60 -57 -83 -51 -46 11
14 23 24 29 53 29 l35 -1 -42 -39z m1864 24 c12 -3 31 -21 42 -40 l20 -34 -42
1 c-23 1 -34 3 -23 6 16 4 14 9 -15 39 -33 34 -29 40 18 28z m-1820 -29 c-15
-14 -33 -25 -39 -25 -6 0 4 11 23 24 44 32 51 32 16 1z m129 -52 c-32 -46 -25
-55 14 -18 28 27 30 27 30 8 0 -27 -17 -40 -69 -52 -41 -9 -43 -8 -37 12 3 12
6 30 6 39 0 24 28 48 56 48 l25 0 -25 -37z m238 16 c-1 -8 -5 -23 -10 -34 -7
-20 -7 -20 15 -1 15 14 25 16 32 9 8 -8 -2 -24 -34 -56 l-45 -45 -6 32 c-6 29
4 81 19 106 9 15 30 6 29 -11z m1421 11 c3 -6 -1 -7 -9 -4 -18 7 -21 14 -7 14
6 0 13 -4 16 -10z m-359 -18 c18 -28 26 -79 19 -113 l-7 -31 -18 27 c-9 14
-34 38 -54 52 -28 21 -34 29 -24 40 9 11 14 11 32 -5 41 -37 50 -37 28 0 -12
19 -19 38 -15 41 11 12 28 7 39 -11z m252 -6 c5 -6 12 -28 16 -48 6 -33 5 -38
-13 -38 -27 0 -74 19 -83 33 -4 7 -8 20 -8 30 0 13 7 9 29 -15 34 -39 52 -32
24 9 -11 15 -22 33 -26 39 -8 14 49 5 61 -10z m-1712 -31 c-54 -48 -40 -53 24
-10 32 22 50 29 46 19 -3 -8 -6 -19 -6 -24 0 -13 -66 -40 -99 -40 -37 0 -37 0
-11 42 17 28 37 40 80 46 3 1 -13 -14 -34 -33z m265 -34 c-25 -62 -14 -67 20
-8 21 36 24 39 27 19 2 -14 -10 -37 -35 -66 -34 -40 -39 -43 -47 -26 -13 29 3
109 27 133 29 29 32 9 8 -52z m1614 -3 l25 -38 -22 0 c-43 0 -97 21 -113 43
-25 36 -17 38 32 7 66 -42 76 -37 23 9 l-45 40 37 -11 c26 -8 46 -23 63 -50z
m-309 44 c27 -18 44 -121 24 -152 -5 -8 -10 -10 -10 -4 0 6 -16 29 -36 52 -19
23 -34 50 -32 59 3 13 11 7 32 -25 35 -55 43 -49 16 12 -27 64 -25 79 6 58z
m-1142 -286 c-76 -216 -193 -519 -204 -530 -5 -5 -61 17 -133 51 l-124 61 -11
73 c-12 78 -26 99 -69 99 -32 0 -39 24 -14 51 12 13 21 28 21 35 0 6 11 19 25
28 14 9 25 22 25 29 1 6 19 24 41 40 21 15 47 43 56 62 9 19 22 35 29 35 7 0
21 11 32 25 11 14 28 25 38 25 11 1 30 7 44 15 34 20 37 19 45 -12 l7 -28 14
35 c15 35 61 90 75 90 4 0 10 -13 14 -30 9 -40 21 -38 44 8 11 22 37 54 58 72
l38 34 3 -53 c3 -45 -7 -82 -54 -215z m906 190 c0 -24 -3 -77 -6 -120 l-7 -76
-30 19 c-29 18 -31 23 -28 73 3 61 20 91 22 38 1 -19 4 -46 8 -60 6 -20 9 -12
15 37 4 34 4 73 0 87 -3 14 -3 33 0 42 11 27 26 4 26 -40z m106 -52 c23 -42
31 -43 39 -4 4 16 10 32 15 35 8 5 47 -42 73 -90 16 -29 17 -29 23 -7 7 26 13
27 50 7 16 -8 36 -15 45 -15 9 0 19 -7 23 -15 3 -8 16 -20 29 -26 13 -6 32
-27 42 -46 11 -20 37 -47 57 -61 21 -13 38 -29 38 -33 0 -5 11 -19 25 -31 14
-12 25 -26 25 -32 0 -5 10 -20 21 -32 28 -30 19 -52 -23 -56 -39 -4 -53 -28
-65 -113 l-8 -60 -105 -51 c-161 -79 -140 -86 -200 68 -29 73 -83 218 -121
322 -62 172 -69 197 -69 265 l0 75 34 -33 c19 -18 42 -48 52 -67z m-2342 -47
c88 -95 196 -227 196 -239 0 -3 -25 -29 -56 -56 -60 -54 -63 -64 -50 -144 4
-31 4 -48 -3 -48 -5 0 -30 30 -54 68 -64 99 -155 208 -241 290 l-76 72 90 0
91 0 -7 53 c-4 28 -13 71 -19 94 l-13 43 29 -21 c16 -11 67 -61 113 -112z
m1060 125 c3 -5 -4 -23 -15 -41 -26 -43 -19 -48 20 -16 29 25 31 26 31 6 0
-22 -19 -35 -67 -46 -29 -6 -33 -4 -33 15 0 54 45 112 64 82z m397 -81 c7 -88
18 -119 20 -55 2 48 16 109 19 79 1 -11 5 -44 9 -73 7 -49 6 -55 -17 -72 -13
-11 -28 -18 -32 -15 -4 2 -10 35 -14 72 -4 37 -10 88 -13 112 -5 35 -3 43 8
39 10 -3 16 -29 20 -87z m-471 73 c0 -8 -19 -13 -24 -6 -3 5 1 9 9 9 8 0 15
-2 15 -3z m2765 -11 c-9 -26 -25 -111 -25 -139 0 -23 2 -24 85 -24 l84 0 -88
-89 c-48 -49 -122 -135 -164 -192 -42 -57 -86 -115 -97 -129 l-20 -25 6 76 6
76 -61 43 c-33 24 -61 45 -61 48 0 13 146 188 228 274 91 94 122 118 107 81z
m-1123 -40 l14 -48 -26 -3 c-46 -5 -80 14 -80 45 l0 27 35 -34 c39 -38 45 -31
15 15 -26 39 -25 45 4 45 21 0 27 -7 38 -47z m-497 -49 c-6 -34 -6 -34 -34
-20 -15 8 -34 22 -41 31 -12 14 -12 18 1 26 20 13 32 6 40 -22 l7 -24 1 23 c1
13 7 33 13 45 l13 22 3 -24 c2 -13 1 -39 -3 -57z m645 62 c0 -2 -7 -9 -15 -16
-13 -11 -14 -10 -9 4 5 14 24 23 24 12z m-1920 -40 c0 -17 9 -24 42 -33 51
-14 57 -10 32 18 -19 22 -19 22 3 9 12 -8 23 -24 26 -37 5 -25 0 -28 -23 -13
-19 12 -31 -7 -24 -36 4 -17 -10 -38 -64 -94 -42 -44 -72 -68 -76 -61 -4 6
-12 11 -17 11 -6 0 -8 -4 -5 -9 4 -5 -4 -7 -16 -4 -21 5 -21 4 -7 -8 21 -18
31 -47 18 -54 -5 -4 -16 1 -25 9 -8 9 -22 16 -30 16 -12 0 -12 4 2 25 9 14 23
25 30 25 8 0 14 8 14 19 0 10 11 35 25 55 13 20 21 36 16 36 -4 0 -6 12 -3 27
5 24 6 25 12 8 6 -16 8 -12 14 18 4 20 17 46 28 57 12 11 17 20 10 20 -6 0 -9
7 -6 15 8 21 24 8 24 -19z m701 0 c0 -17 2 -18 7 -4 5 13 11 15 22 7 13 -8 11
-12 -9 -30 -32 -26 -45 -20 -49 24 -3 30 0 36 12 31 9 -3 16 -16 17 -28z
m1293 -86 c14 -48 37 -86 103 -177 24 -32 43 -64 43 -70 0 -7 12 -13 28 -13
32 0 78 -22 75 -36 -1 -6 10 -23 23 -40 23 -26 25 -27 21 -6 -3 12 -1 20 4 16
5 -3 9 -13 9 -23 0 -22 36 -56 44 -42 4 5 2 12 -4 16 -5 3 -10 12 -10 18 0 7
7 3 16 -8 8 -11 12 -26 9 -33 -3 -8 0 -21 6 -28 6 -8 8 -14 4 -14 -4 0 -16 11
-26 24 -11 14 -28 28 -39 31 -11 3 -33 19 -49 36 -16 16 -36 29 -43 29 -8 0
-25 11 -38 25 -13 14 -30 25 -38 25 -21 0 39 -68 61 -69 10 -1 27 -6 38 -12
16 -8 18 -13 8 -25 -9 -11 -7 -14 10 -14 11 0 21 -6 21 -14 0 -8 3 -22 7 -32
6 -16 3 -15 -21 4 -16 12 -34 22 -40 22 -6 0 -17 9 -24 20 -8 14 -23 20 -46
20 -26 0 -36 5 -41 20 -4 11 -11 18 -16 14 -6 -3 -16 0 -24 6 -12 10 -15 9
-15 -2 0 -8 11 -20 25 -26 33 -15 32 -30 -2 -38 -16 -3 -38 -9 -50 -14 -15 -6
-25 -5 -33 6 -10 11 -8 14 11 15 13 1 32 0 43 -1 11 -1 16 3 14 12 -3 7 -15
13 -27 12 -11 0 -21 3 -21 8 0 4 7 8 15 8 8 0 15 6 15 13 0 15 27 74 43 95 7
9 13 9 23 1 11 -9 12 -6 3 20 -6 17 -23 41 -38 54 -15 13 -31 35 -35 50 -7 30
-44 72 -54 63 -3 -3 4 -16 15 -29 39 -42 38 -97 -3 -97 -23 0 -38 39 -22 58
11 14 11 15 -6 9 -16 -6 -17 -5 -6 8 9 11 9 15 1 15 -6 0 -14 -7 -17 -15 -16
-39 -86 50 -77 98 4 20 1 27 -10 27 -9 0 -19 -4 -22 -10 -3 -5 -11 -10 -17
-10 -7 0 -6 6 2 15 7 8 21 15 31 15 11 0 19 5 19 10 0 6 8 10 19 10 13 0 21
10 25 33 l7 32 30 -35 c16 -19 36 -55 43 -80z m-1884 90 c0 -5 -2 -10 -4 -10
-3 0 -8 5 -11 10 -3 6 -1 10 4 10 6 0 11 -4 11 -10z m1730 -35 c-7 -9 -15 -13
-18 -10 -3 2 1 11 8 20 7 9 15 13 18 10 3 -2 -1 -11 -8 -20z m50 15 c0 -5 -4
-10 -10 -10 -5 0 -10 5 -10 10 0 6 5 10 10 10 6 0 10 -4 10 -10z m-750 -4 c0
-10 -24 -73 -33 -84 -8 -10 -16 -7 -39 14 -15 15 -28 31 -28 36 0 13 40 9 40
-4 0 -7 6 -4 12 7 6 11 16 23 22 27 12 8 26 10 26 4z m-381 -73 l8 -48 10 45
10 45 18 -37 18 -37 -27 -41 c-30 -45 -54 -60 -66 -40 -4 7 -13 39 -20 72 -11
56 -10 60 12 78 13 10 24 17 26 15 2 -2 7 -25 11 -52z m107 33 c3 -9 14 -12
27 -8 22 5 22 5 3 -16 -25 -29 -33 -28 -51 8 -14 27 -14 30 0 30 9 0 18 -6 21
-14z m374 -88 c-11 -28 -23 -55 -28 -60 -5 -5 -27 8 -50 29 l-42 38 22 34 22
34 17 -39 18 -39 0 48 1 48 30 -21 30 -21 -20 -51z m-699 26 c1 -52 -10 -105
-23 -121 -6 -8 -8 -16 -5 -20 4 -3 2 -12 -4 -20 -6 -7 -8 -13 -4 -13 4 0 2 -7
-5 -15 -6 -8 -13 -24 -14 -37 -4 -33 -25 -109 -36 -133 -13 -27 -41 -138 -36
-143 2 -2 21 48 42 112 21 63 42 112 48 109 5 -4 7 3 4 15 -4 12 -2 20 2 17 5
-3 12 5 15 16 4 12 14 38 23 58 15 35 15 35 22 11 3 -14 -2 -53 -13 -90 -22
-79 -108 -343 -113 -349 -3 -3 -124 37 -132 44 -1 1 26 76 61 166 36 90 86
225 113 301 27 75 50 135 52 133 2 -2 3 -20 3 -41z m509 -29 c0 -21 -55 -105
-69 -105 -11 0 -77 72 -91 98 -12 25 -5 35 42 62 19 11 22 5 34 -70 6 -40 8
-42 15 -20 4 14 7 45 8 69 l1 45 30 -29 c17 -16 30 -38 30 -50z m272 -2 c22
-20 24 -70 3 -120 -14 -34 -16 -35 -37 -21 -12 8 -31 27 -42 41 -18 24 -18 28
-3 64 16 39 17 38 33 -22 8 -27 9 -25 12 23 3 57 6 60 34 35z m-660 -44 c-6
-60 12 -61 23 -2 l7 38 14 -34 c8 -18 14 -37 14 -42 0 -12 -70 -89 -80 -89
-13 0 -30 60 -30 105 0 33 5 46 23 58 33 24 35 22 29 -34z m788 -99 c29 -80
74 -200 101 -268 27 -67 49 -126 49 -130 0 -9 -97 -42 -122 -42 -10 0 -33 57
-76 193 -62 192 -69 221 -54 244 5 9 14 -5 26 -37 11 -30 22 -47 29 -43 6 4 8
0 4 -10 -3 -9 -2 -17 2 -19 4 -2 23 -48 41 -103 37 -115 59 -151 31 -52 -11
37 -17 67 -14 67 3 0 1 6 -4 13 -6 6 -16 35 -23 62 -7 28 -16 54 -19 60 -3 5
-6 16 -7 25 -3 19 -12 54 -14 58 -2 1 -3 5 -5 10 -1 4 -7 20 -14 36 -8 20 -9
32 -1 40 5 5 10 19 10 30 0 30 4 22 60 -134z m-370 50 c1 -29 3 -32 10 -15 5
11 9 33 9 50 l1 30 32 -32 32 -32 -18 -38 c-29 -64 -41 -76 -65 -64 -11 6 -32
27 -47 46 l-26 35 28 45 c32 49 41 44 44 -25z m-230 -5 c2 -20 4 -24 7 -10 15
75 12 72 39 31 l26 -37 -27 -40 c-45 -65 -50 -66 -84 -18 -38 51 -38 61 -4
106 24 31 28 33 34 17 4 -11 8 -32 9 -49z m-985 36 c-3 -6 -11 -11 -17 -11 -6
0 -6 6 2 15 14 17 26 13 15 -4z m-293 -78 l60 -58 -63 -56 c-34 -32 -74 -59
-88 -62 -14 -2 -33 -7 -42 -11 -18 -8 -123 87 -117 106 7 19 157 138 174 138
9 0 42 -26 76 -57z m2504 12 c12 -18 10 -22 -17 -37 -26 -15 -31 -16 -35 -3
-4 8 -3 23 2 33 4 9 6 21 5 25 -3 16 32 2 45 -18z m437 -36 l77 -60 -30 -42
c-47 -66 -80 -103 -80 -90 0 7 -19 18 -42 24 -28 7 -64 29 -103 64 l-60 54 25
27 c36 38 100 84 119 84 9 0 51 -27 94 -61z m-1307 -84 c1 6 5 37 9 69 l7 59
29 -29 c27 -27 28 -32 18 -67 -6 -21 -23 -52 -40 -70 l-29 -32 -25 28 c-38 43
-41 71 -14 130 l24 51 9 -75 c5 -41 10 -69 12 -64z m-1410 99 c-5 -14 -4 -15
9 -4 13 11 19 10 35 -5 14 -13 17 -21 9 -26 -8 -5 -5 -13 10 -25 11 -10 21
-26 21 -36 0 -10 7 -18 16 -18 10 0 13 -6 9 -19 -4 -13 0 -20 16 -24 12 -3 18
-10 14 -17 -4 -6 -14 -8 -24 -4 -9 3 -23 7 -31 9 -8 1 -26 5 -38 9 -18 6 -27
3 -38 -13 -9 -12 -23 -21 -33 -21 -10 0 -21 -9 -24 -20 -7 -26 -33 -26 -40 1
-4 15 -2 19 8 15 9 -3 15 3 17 17 2 16 11 23 33 25 17 2 37 9 45 16 8 7 23 16
33 19 26 9 21 25 -8 23 -14 0 -25 -4 -25 -8 0 -18 -33 -38 -55 -32 -16 4 -27
0 -36 -13 -14 -19 -108 -93 -155 -123 -14 -9 -24 -25 -24 -37 0 -26 -12 -30
-30 -8 -10 12 -9 15 5 15 12 0 15 5 11 16 -7 19 1 54 14 54 4 0 6 -9 3 -20 -3
-11 0 -20 6 -20 6 0 14 13 17 28 3 15 15 39 26 52 l20 25 -5 -27 c-2 -16 0
-28 5 -28 4 0 14 12 21 28 6 15 17 30 24 35 7 4 10 14 7 21 -6 16 23 36 53 37
23 1 82 69 60 69 -8 0 -26 -12 -39 -27 -13 -16 -38 -33 -55 -39 -32 -12 -32
-12 -18 10 9 13 12 26 8 29 -8 8 59 37 86 37 10 0 21 9 24 20 3 11 8 20 12 20
4 0 4 -7 1 -16z m984 -80 c0 -23 -54 -104 -70 -104 -5 0 -18 30 -29 67 l-21
68 24 24 24 24 7 -59 c10 -86 12 -87 20 -5 l8 74 18 -34 c10 -19 18 -43 19
-55z m170 29 c0 -50 18 -48 26 3 l6 46 34 -33 33 -32 -21 -39 c-12 -21 -31
-47 -44 -58 l-21 -21 -47 46 c-25 26 -46 51 -46 56 0 6 15 28 32 49 36 42 48
38 48 -17z m-320 -58 c-4 -5 -8 -17 -8 -25 0 -8 -3 -22 -5 -30 -2 -8 -7 -33
-12 -55 -4 -22 -11 -44 -15 -50 -10 -13 -43 -146 -38 -151 3 -2 19 46 38 106
18 61 37 110 43 110 5 0 6 7 3 16 -3 8 -2 13 3 9 5 -3 11 1 14 7 2 7 10 -7 17
-30 13 -40 11 -54 -14 -158 -23 -95 -31 -114 -45 -110 -9 3 -38 10 -66 17 -27
7 -51 13 -53 14 -7 6 110 360 121 367 14 9 28 -22 17 -37z m790 -337 c0 -6
-132 -40 -137 -35 -5 6 -63 239 -63 255 0 9 11 31 25 47 22 28 24 28 18 6 -4
-15 -2 -22 4 -18 6 4 24 -39 43 -101 33 -107 57 -159 39 -86 -5 22 -12 53 -16
69 -3 17 -9 35 -13 40 -8 11 -31 97 -36 134 -1 14 2 34 8 44 8 17 20 -12 69
-164 32 -101 59 -187 59 -191z m-1787 347 c-3 -9 -8 -14 -10 -11 -3 3 -2 9 2
15 9 16 15 13 8 -4z m331 -21 c4 -9 4 -19 1 -22 -6 -6 -35 18 -35 29 0 16 28
10 34 -7z m1129 -80 c4 -4 7 14 7 39 0 26 3 47 8 47 4 0 17 -18 30 -40 l23
-40 -32 -45 c-18 -25 -36 -45 -40 -45 -9 0 -79 83 -79 94 0 3 12 25 28 48 l27
42 10 -46 c6 -26 13 -50 18 -54z m-1793 70 c11 -12 11 -18 -2 -30 -14 -14 -16
-13 -20 15 -5 34 3 39 22 15z m1573 -23 c25 -38 25 -39 8 -67 -10 -16 -30 -40
-44 -53 l-25 -23 -31 42 c-17 24 -31 48 -31 53 0 14 43 77 53 77 4 0 7 -20 7
-44 0 -25 5 -48 10 -51 6 -3 10 4 10 18 0 25 11 87 15 87 1 0 14 -17 28 -39z
m1107 24 c0 -16 -27 -32 -37 -21 -7 7 16 36 28 36 5 0 9 -7 9 -15z m646 -32
c-2 -3 -9 -2 -15 2 -8 4 -7 13 1 28 l13 22 3 -23 c2 -13 1 -26 -2 -29z m-3044
11 c-3 -17 -8 -22 -15 -15 -7 7 -6 15 3 26 17 20 18 19 12 -11z m58 17 c0 -5
-9 -11 -21 -14 -16 -4 -18 -3 -8 9 13 16 29 19 29 5z m2540 -61 c0 -13 5 -17
20 -13 16 4 20 0 20 -21 0 -31 -24 -35 -42 -6 -7 11 -21 20 -30 20 -14 0 -38
27 -38 42 0 2 16 2 35 0 25 -3 35 -9 35 -22z m-2660 10 c-8 -5 -19 -10 -25
-10 -5 0 -3 5 5 10 8 5 20 10 25 10 6 0 3 -5 -5 -10z m454 -16 c14 -37 -9 -48
-40 -17 -15 16 -15 17 2 24 28 11 31 11 38 -7z m2426 6 c8 -5 12 -11 9 -14 -3
-3 -14 1 -25 9 -21 16 -8 20 16 5z m-2497 -45 c243 -147 549 -260 815 -300
125 -19 387 -19 521 0 269 38 559 146 782 290 l69 44 66 -67 c81 -82 104 -107
104 -115 0 -3 -38 -29 -85 -57 -288 -174 -672 -298 -1025 -330 -470 -44 -1013
92 -1414 354 l-88 57 21 22 c12 12 48 50 80 85 33 34 64 62 70 62 6 0 44 -20
84 -45z m2447 -19 c0 -8 7 -19 15 -26 13 -10 15 -9 15 11 1 23 1 23 15 5 10
-13 12 -23 5 -30 -15 -15 -12 -29 5 -22 19 7 20 -8 2 -23 -16 -13 -27 -5 -27
20 0 10 -9 23 -21 29 -34 19 -54 44 -57 75 l-3 29 25 -27 c14 -16 26 -34 26
-41z m-2886 22 l-6 -33 26 30 c31 36 34 25 5 -17 -19 -26 -23 -28 -36 -15 -9
9 -12 23 -7 40 9 38 25 33 18 -5z m1475 -40 c1 -56 18 -54 25 4 l7 51 34 -33
34 -33 -21 -39 c-12 -21 -32 -47 -44 -59 l-22 -20 -34 29 c-18 17 -40 42 -47
56 -13 23 -11 28 18 61 17 20 31 41 32 48 1 27 18 -30 18 -65z m1048 64 c16
-10 4 -27 -24 -36 -24 -8 -28 0 -17 28 7 17 22 20 41 8z m471 -39 c-6 34 9 36
18 2 6 -26 -11 -59 -26 -50 -4 3 -18 22 -30 42 l-22 38 32 -30 33 -30 -5 28z
m-2793 9 c-5 -4 -19 -18 -30 -31 l-20 -24 28 7 c22 5 27 3 27 -13 0 -24 -29
-36 -36 -16 -4 9 -20 15 -38 16 -26 1 -27 2 -9 7 12 4 31 19 43 35 12 15 27
27 33 27 8 0 8 -3 2 -8z m1567 -243 c-4 -4 -32 -9 -63 -13 l-56 -6 -12 82
c-11 69 -10 83 2 96 13 13 17 8 28 -42 7 -31 14 -54 17 -52 2 3 -1 28 -7 57
-17 79 -6 70 15 -13 11 -42 20 -64 22 -51 2 12 -2 41 -9 65 -18 63 -19 80 -6
106 10 21 15 10 43 -100 18 -68 29 -126 26 -129z m-1527 221 c-3 -5 -14 -10
-23 -10 -15 0 -15 2 -2 10 20 13 33 13 25 0z m1043 -7 c6 -10 6 -28 0 -47 -15
-49 -19 -68 -23 -111 -4 -46 2 -32 30 68 21 74 28 70 10 -6 -7 -31 -10 -55 -5
-52 5 3 11 23 15 44 5 31 11 39 26 38 19 -1 19 -18 0 -117 l-7 -35 -58 2 c-32
1 -60 4 -62 6 -6 5 51 227 58 227 4 0 11 -7 16 -17z m1552 -13 c8 -16 8 -18
-4 -14 -17 6 -30 34 -16 34 5 0 14 -9 20 -20z m-55 0 c3 -5 -1 -10 -9 -10 -9
0 -16 5 -16 10 0 6 4 10 9 10 6 0 13 -4 16 -10z m-2767 -45 c-3 -3 -9 2 -12
12 -6 14 -5 15 5 6 7 -7 10 -15 7 -18z m2871 9 c2 -2 -11 -4 -30 -4 -29 -1
-32 -3 -18 -13 9 -7 18 -24 21 -40 4 -22 3 -25 -8 -16 -7 6 -16 19 -19 29 -3
10 -15 20 -25 23 -11 3 -20 12 -20 21 0 13 8 15 48 9 26 -3 49 -7 51 -9z
m-2765 -37 c-3 -9 -10 -17 -15 -17 -11 0 -12 34 -2 44 11 11 24 -9 17 -27z
m46 20 c0 -7 -7 -22 -16 -33 -14 -17 -15 -17 -10 -1 3 10 6 25 6 33 0 8 5 14
10 14 6 0 10 -6 10 -13z m2730 -26 c0 -11 -4 -22 -9 -25 -11 -7 -23 22 -15 35
9 16 24 10 24 -10z m-1296 -88 l7 -53 -56 0 c-54 0 -55 1 -55 28 0 31 28 79
31 52 0 -8 5 -4 9 10 7 22 8 21 9 -13 1 -21 5 -36 10 -32 6 3 9 23 9 44 0 50
13 75 22 41 4 -14 10 -49 14 -77z m-185 21 c-1 -30 2 -58 5 -61 3 -4 6 7 7 23
0 16 4 38 9 49 7 17 9 16 10 -10 2 -18 4 -23 7 -12 7 28 23 9 23 -29 l0 -34
-51 0 -51 0 7 63 c8 68 12 80 25 72 5 -3 9 -31 9 -61z m-1239 6 c13 -9 13 -10
0 -10 -8 0 -22 5 -30 10 -13 9 -13 10 0 10 8 0 22 -5 30 -10z m2655 -10 c3 -5
-1 -10 -10 -10 -9 0 -13 5 -10 10 3 6 8 10 10 10 2 0 7 -4 10 -10z m-2083
-270 c15 0 0 -48 -26 -84 -71 -95 -69 -121 3 -31 24 30 47 52 52 49 5 -2 14 4
21 16 13 21 52 27 63 10 9 -14 -47 -91 -101 -139 -49 -43 -135 -81 -183 -81
l-29 0 45 67 c25 37 61 99 80 136 25 50 38 67 49 63 9 -3 20 -6 26 -6z m1573
-85 c25 -46 61 -105 80 -130 l35 -45 -38 0 c-57 0 -150 50 -208 111 -48 51
-80 97 -72 104 12 12 50 7 69 -10 14 -13 20 -14 15 -5 -8 17 -8 16 58 -63 38
-47 73 -67 42 -24 -40 54 -76 113 -76 124 0 10 13 17 42 22 3 0 27 -37 53 -84z
m-1379 -8 c-6 -18 -24 -54 -39 -81 -42 -75 -26 -80 22 -7 48 75 54 83 46 56
-4 -11 3 -5 15 13 15 21 30 32 46 32 13 0 24 -3 24 -6 0 -30 -90 -135 -148
-173 -41 -26 -160 -67 -169 -58 -1 2 22 35 53 73 30 38 71 97 90 130 26 48 39
61 53 57 16 -4 17 -9 7 -36z m1155 -23 c17 -31 58 -89 91 -131 l59 -74 -38 6
c-95 17 -196 86 -259 176 -23 34 -25 42 -13 50 23 14 33 11 51 -18 10 -16 18
-22 18 -14 0 8 18 -15 41 -50 50 -78 64 -93 54 -59 -4 14 -10 27 -14 30 -8 6
-37 66 -50 102 -10 25 -5 34 21 37 3 1 21 -24 39 -55z m-965 -26 c-7 -24 -23
-67 -35 -97 -29 -72 -4 -51 34 29 16 33 32 55 35 49 4 -6 13 3 20 20 8 21 19
31 35 31 35 0 36 -10 8 -62 -50 -92 -148 -160 -261 -181 -38 -8 -42 -16 43
104 33 48 68 101 77 118 10 19 25 31 37 31 19 0 19 -2 7 -42z m760 10 c17 -33
85 -134 132 -195 l24 -33 -33 6 c-111 21 -213 91 -265 181 -15 24 -25 46 -23
48 2 2 15 6 29 10 21 5 27 1 38 -25 8 -16 17 -28 21 -26 3 3 22 -26 41 -62 24
-46 36 -61 38 -48 2 10 -1 21 -6 25 -6 4 -13 19 -16 35 -3 15 -10 34 -17 42
-6 8 -9 14 -6 14 3 0 2 14 -3 30 -7 26 -6 30 10 30 12 0 26 -13 36 -32z m-542
3 c7 -10 -34 -124 -46 -129 -4 -2 -8 -13 -8 -25 0 -21 1 -21 20 3 10 14 27 42
36 62 9 21 21 35 27 31 6 -4 8 0 4 11 -4 10 -3 15 3 11 5 -3 14 4 20 15 11 20
50 28 50 10 0 -28 -45 -122 -76 -159 -45 -53 -101 -81 -172 -88 l-56 -6 19 29
c40 61 105 176 119 209 15 34 47 48 60 26z m347 -43 c13 -29 48 -90 77 -136
l52 -84 -52 4 c-64 5 -114 28 -158 71 -34 33 -90 138 -90 170 0 29 38 20 55
-13 9 -16 19 -30 23 -30 5 0 19 -19 32 -42 13 -24 30 -52 38 -63 13 -19 14
-19 6 5 -4 14 -16 45 -27 70 -11 25 -21 48 -21 52 -1 3 -4 10 -8 14 -11 10 11
34 32 34 10 0 25 -19 41 -52z"/>
<path d="M930 4135 c0 -7 118 -85 129 -85 6 0 11 6 11 13 -1 10 -140 83 -140
72z"/>
<path d="M935 4039 c62 -42 107 -61 118 -50 7 7 5 12 -9 17 -10 4 -43 18 -73
31 -66 28 -75 29 -36 2z"/>
<path d="M1117 3992 c-24 -27 -21 -69 8 -97 33 -34 50 -31 24 4 -16 22 -20 39
-17 70 2 23 3 41 2 41 0 0 -8 -8 -17 -18z"/>
<path d="M1259 3986 c22 -26 110 -78 121 -71 13 8 13 25 -1 25 -5 0 -37 14
-71 30 -33 17 -55 24 -49 16z"/>
<path d="M900 3985 c0 -5 86 -54 113 -64 19 -7 27 -6 31 4 3 10 -17 21 -70 39
-41 13 -74 23 -74 21z"/>
<path d="M1245 3920 c6 -10 119 -80 129 -80 3 0 6 6 6 13 0 7 -32 27 -70 44
-39 17 -68 28 -65 23z"/>
<path d="M890 3896 c0 -9 140 -50 146 -43 12 12 -2 19 -68 33 -71 15 -78 16
-78 10z"/>
<path d="M1093 3867 c-7 -16 -13 -34 -13 -41 0 -23 41 -66 62 -66 21 0 21 0
-2 25 -14 15 -26 43 -29 67 l-6 42 -12 -27z"/>
<path d="M1235 3850 c10 -17 125 -71 135 -65 19 12 10 23 -22 30 -18 4 -52 16
-76 26 -23 10 -40 14 -37 9z"/>
<path d="M880 3826 c0 -2 24 -13 53 -24 91 -34 97 -35 97 -18 0 9 -2 16 -4 16
-9 0 -113 21 -128 26 -10 3 -18 3 -18 0z"/>
<path d="M1080 3756 c-12 -25 -12 -32 3 -58 12 -21 14 -34 7 -48 -18 -33 -11
-67 16 -89 37 -29 50 -26 25 5 -28 36 -29 94 -1 94 20 0 20 0 0 20 -18 18 -23
30 -33 85 -3 18 -5 17 -17 -9z"/>
<path d="M1220 3767 c0 -3 24 -14 53 -25 89 -33 97 -35 97 -19 0 10 -18 18
-57 25 -32 6 -66 13 -75 17 -10 4 -18 5 -18 2z"/>
<path d="M910 3734 c66 -21 120 -29 120 -16 0 11 -27 17 -115 26 l-50 5 45
-15z"/>
<path d="M1220 3696 c0 -2 24 -13 53 -24 90 -33 97 -35 97 -18 0 16 -12 21
-75 31 -22 3 -48 8 -57 11 -10 3 -18 3 -18 0z"/>
<path d="M910 3665 c25 -9 62 -18 83 -21 30 -5 37 -4 37 10 0 13 -11 16 -57
16 -32 0 -69 2 -83 5 -14 3 -5 -2 20 -10z"/>
<path d="M1236 3619 c2 -4 28 -12 56 -19 29 -6 61 -14 71 -17 10 -2 17 1 17 9
0 10 -23 17 -74 24 -41 5 -72 6 -70 3z"/>
<path d="M955 3591 l-60 -6 49 -7 c76 -12 96 -10 90 7 -4 8 -9 14 -13 13 -3
-1 -33 -4 -66 -7z"/>
<path d="M1280 3551 l-55 -6 55 -7 c84 -12 110 -10 110 7 0 16 -11 16 -110 6z"/>
<path d="M965 3520 l-70 -5 73 -9 c76 -8 86 -7 74 9 -4 6 -37 8 -77 5z"/>
<path d="M1310 3485 l-65 -13 82 -1 c69 -1 81 1 77 14 -7 17 -6 17 -94 0z"/>
<path d="M970 3448 l-75 -18 78 4 c78 3 99 9 81 24 -5 5 -43 0 -84 -10z"/>
<path d="M1330 3415 l-55 -13 55 -1 c61 -1 100 7 100 20 0 12 -32 10 -100 -6z"/>
<path d="M980 3379 l-55 -18 60 5 c75 7 97 13 90 25 -8 13 -31 10 -95 -12z"/>
<path d="M1360 3364 c-40 -14 -56 -23 -40 -24 38 0 121 24 121 35 1 16 -13 14
-81 -11z"/>
<path d="M1385 3313 c-53 -25 -61 -32 -35 -27 58 11 120 38 112 50 -5 7 -31
-1 -77 -23z"/>
<path d="M1020 3313 c-90 -31 -90 -31 -40 -25 69 8 121 25 112 38 -5 7 -28 3
-72 -13z"/>
<path d="M1420 3270 c-25 -16 -50 -30 -57 -30 -6 0 -14 -4 -18 -10 -6 -10 88
20 124 40 12 6 19 15 16 21 -9 13 -15 11 -65 -21z"/>
<path d="M1094 3270 c-5 -5 -34 -23 -64 -39 -68 -38 -52 -40 29 -5 34 15 61
33 61 40 0 16 -12 18 -26 4z"/>
<path d="M1445 3210 c-33 -22 -57 -40 -52 -40 18 0 136 64 131 71 -8 14 -16
11 -79 -31z"/>
<path d="M1082 3181 c-83 -50 -88 -57 -23 -31 81 32 101 44 93 57 -5 8 -27 0
-70 -26z"/>
<path d="M1145 3122 c-17 -15 -44 -37 -60 -50 l-30 -23 45 22 c62 30 101 59
95 70 -9 14 -17 11 -50 -19z"/>
<path d="M1168 3044 c-31 -29 -54 -54 -51 -54 8 0 113 72 119 82 4 5 2 14 -2
18 -5 5 -34 -15 -66 -46z"/>
<path d="M1225 2984 c-28 -29 -48 -54 -45 -54 14 0 120 92 115 100 -10 16 -18
11 -70 -46z"/>
<path d="M1279 2938 c-54 -63 -42 -60 41 11 25 21 32 33 24 41 -7 7 -26 -7
-65 -52z"/>
<path d="M1366 2935 c-10 -15 -33 -44 -53 -66 -53 -59 -25 -47 37 16 38 39 51
58 44 65 -8 8 -16 3 -28 -15z"/>
<path d="M1396 2852 c-33 -45 -39 -59 -21 -42 75 67 106 111 77 110 -4 -1 -29
-31 -56 -68z"/>
<path d="M1458 2833 c-26 -34 -43 -63 -39 -63 11 0 101 97 101 109 0 26 -19
12 -62 -46z"/>
<path d="M813 2403 c9 -2 23 -2 30 0 6 3 -1 5 -18 5 -16 0 -22 -2 -12 -5z"/>
<path d="M3838 4107 c-46 -22 -68 -38 -68 -49 0 -15 7 -13 48 12 47 30 101 70
92 69 -3 -1 -35 -15 -72 -32z"/>
<path d="M3905 4055 c-10 -9 -43 -23 -72 -32 -29 -9 -53 -23 -53 -30 0 -7 5
-13 11 -13 16 0 114 57 129 75 16 19 11 19 -15 0z"/>
<path d="M3707 3978 c4 -27 0 -46 -16 -73 l-21 -36 21 12 c30 15 43 -2 35 -45
-4 -21 -18 -44 -34 -57 l-27 -22 39 7 39 7 -7 -32 c-3 -18 -16 -43 -28 -56
l-21 -23 23 0 c21 0 22 -3 17 -41 -3 -22 -13 -49 -23 -60 -26 -28 2 -24 31 6
27 26 31 54 14 86 -7 15 -7 24 1 35 8 8 10 28 6 51 -3 21 -6 58 -6 82 1 28 -5
50 -16 62 -13 15 -15 22 -6 31 18 18 14 53 -8 79 l-19 24 6 -37z"/>
<path d="M3518 3967 c-37 -18 -67 -38 -68 -44 0 -7 5 -13 11 -13 11 0 129 78
129 85 0 6 6 9 -72 -28z"/>
<path d="M3858 3963 c-39 -15 -68 -31 -68 -39 0 -19 2 -18 68 16 108 56 108
63 0 23z"/>
<path d="M3570 3915 c-14 -8 -46 -21 -72 -30 -33 -11 -45 -21 -41 -30 4 -12
14 -10 52 9 42 22 103 65 91 65 -3 0 -16 -6 -30 -14z"/>
<path d="M3866 3886 c-33 -6 -61 -17 -64 -24 -6 -18 26 -14 93 13 66 26 60 28
-29 11z"/>
<path d="M3533 3831 c-40 -14 -73 -31 -73 -38 0 -7 5 -13 10 -13 14 0 99 44
125 64 24 19 26 19 -62 -13z"/>
<path d="M3881 3815 c-55 -11 -89 -30 -76 -43 5 -5 125 35 145 48 18 12 13 11
-69 -5z"/>
<path d="M3535 3751 c-38 -9 -71 -22 -72 -29 -2 -6 1 -12 5 -12 13 0 119 37
139 49 23 13 14 12 -72 -8z"/>
<path d="M3877 3740 c-59 -8 -76 -15 -64 -27 8 -7 113 14 137 28 18 10 14 10
-73 -1z"/>
<path d="M3570 3690 c-19 -4 -51 -11 -71 -14 -22 -4 -36 -12 -36 -21 0 -17 9
-16 100 17 76 27 79 34 7 18z"/>
<path d="M3878 3673 c-46 -3 -68 -8 -72 -18 -3 -10 1 -15 12 -15 24 0 132 26
139 34 4 3 2 5 -3 4 -5 -1 -39 -3 -76 -5z"/>
<path d="M3533 3617 c-51 -7 -73 -15 -73 -24 0 -9 7 -12 18 -10 9 3 41 11 70
17 28 7 55 16 58 21 3 5 4 8 2 7 -2 -1 -36 -6 -75 -11z"/>
<path d="M3800 3586 c0 -18 26 -20 100 -7 l45 8 -57 2 c-31 0 -63 4 -72 7 -11
4 -16 1 -16 -10z"/>
<path d="M3445 3551 c-11 -18 18 -23 92 -16 41 4 73 8 71 10 -10 8 -158 13
-163 6z"/>
<path d="M3794 3521 c-21 -21 26 -27 101 -12 38 7 36 8 -28 12 -38 2 -71 2
-73 0z"/>
<path d="M3437 3493 c-18 -17 -1 -23 71 -22 62 1 70 3 42 9 -71 16 -107 20
-113 13z"/>
<path d="M3780 3451 c0 -12 52 -21 114 -20 l51 1 -65 13 c-78 17 -100 18 -100
6z"/>
<path d="M3410 3421 c0 -13 39 -21 100 -20 l55 1 -60 14 c-71 16 -95 17 -95 5z"/>
<path d="M3766 3391 c-9 -14 2 -18 79 -24 68 -6 69 -6 30 7 -67 22 -103 28
-109 17z"/>
<path d="M3397 3383 c-15 -14 -5 -21 50 -32 82 -16 95 -13 38 10 -72 28 -81
30 -88 22z"/>
<path d="M3376 3342 c-3 -3 -6 -9 -6 -13 0 -9 139 -54 144 -48 6 7 -132 68
-138 61z"/>
<path d="M3744 3328 c-3 -5 -3 -12 0 -15 6 -7 139 -33 144 -29 1 2 -29 14 -68
28 -40 15 -73 21 -76 16z"/>
<path d="M3350 3287 c0 -11 101 -57 125 -57 11 0 -106 69 -117 70 -5 0 -8 -6
-8 -13z"/>
<path d="M3717 3265 c-4 -10 15 -22 64 -41 38 -15 71 -25 73 -23 2 2 -26 21
-64 41 -53 29 -69 34 -73 23z"/>
<path d="M3315 3240 c-3 -5 16 -20 42 -33 83 -42 101 -41 35 2 -69 45 -68 45
-77 31z"/>
<path d="M3686 3212 c-13 -12 -4 -22 32 -38 56 -24 117 -45 110 -38 -17 16
-137 81 -142 76z"/>
<path d="M3280 3201 c0 -10 108 -81 123 -81 4 0 -17 20 -47 45 -55 44 -76 54
-76 36z"/>
<path d="M3645 3139 c-9 -13 -12 -10 70 -54 39 -20 59 -28 46 -18 -14 10 -43
33 -64 51 -44 36 -43 36 -52 21z"/>
<path d="M3596 3082 c-5 -8 111 -92 127 -92 4 0 -19 23 -52 50 -63 53 -67 55
-75 42z"/>
<path d="M3546 3031 c-4 -5 13 -26 36 -46 71 -60 86 -62 33 -3 -52 58 -60 64
-69 49z"/>
<path d="M3494 2989 c-5 -8 8 -26 37 -51 70 -62 88 -66 35 -7 -27 30 -53 58
-57 62 -3 5 -10 3 -15 -4z"/>
<path d="M3442 2951 c-7 -4 11 -29 50 -66 65 -63 65 -61 1 22 -24 30 -45 48
-51 44z"/>
<path d="M3376 2911 c-6 -10 80 -111 95 -111 5 0 -9 24 -31 53 -22 28 -40 55
-40 60 0 10 -18 9 -24 -2z"/>
<path d="M3316 2882 c-3 -5 20 -33 51 -63 59 -57 60 -52 4 24 -34 47 -45 54
-55 39z"/>
<path d="M4228 2633 c6 -2 18 -2 25 0 6 3 1 5 -13 5 -14 0 -19 -2 -12 -5z"/>
<path d="M2270 4811 c-85 -6 -115 -16 -140 -45 -7 -9 -26 -16 -42 -16 -17 0
-27 -4 -23 -10 11 -19 71 -11 91 11 39 44 119 62 147 35 13 -13 17 -12 37 10
13 13 22 23 19 22 -2 -1 -42 -4 -89 -7z"/>
<path d="M2460 4759 c14 -24 -2 -74 -29 -89 -14 -8 -14 -9 -1 -10 9 0 26 7 38
16 21 15 22 14 22 -18 0 -18 -5 -40 -10 -48 -6 -10 -5 -17 5 -20 11 -4 11 -11
-2 -40 -9 -19 -16 -45 -17 -57 -1 -12 -12 -33 -25 -47 -23 -24 -23 -25 -2 -19
35 9 58 49 65 110 4 32 9 76 12 99 4 30 1 45 -10 57 -9 8 -16 26 -16 39 0 24
-16 48 -32 48 -5 0 -4 -9 2 -21z"/>
<path d="M2165 4739 c-47 -30 -52 -31 -119 -24 -39 4 -79 11 -89 17 -15 8 -18
7 -15 -4 2 -7 24 -19 47 -27 34 -11 42 -17 38 -33 -4 -14 -1 -18 11 -16 9 2
18 13 20 26 4 29 12 28 57 -8 21 -16 49 -30 62 -30 30 0 83 51 83 79 0 24 10
27 28 9 9 -9 12 -8 12 5 0 19 -29 37 -62 37 -13 0 -46 -14 -73 -31z m87 -5
c-4 -22 -6 -24 -14 -10 -10 18 -26 20 -48 6 -13 -9 -13 -11 -1 -19 24 -16 -28
-35 -59 -22 -14 5 -19 10 -11 10 8 1 22 7 30 15 23 21 73 46 92 46 12 0 15 -7
11 -26z m-65 -80 c-3 -3 -12 -4 -19 -1 -8 3 -5 6 6 6 11 1 17 -2 13 -5z"/>
<path d="M1855 4663 c-41 -21 -115 -82 -115 -94 0 -5 17 1 38 14 58 36 90 47
131 47 39 0 68 20 56 40 -9 15 -76 11 -110 -7z m68 -10 c-7 -2 -21 -2 -30 0
-10 3 -4 5 12 5 17 0 24 -2 18 -5z"/>
<path d="M2348 4628 c15 -15 16 -83 1 -110 -9 -16 -8 -19 3 -16 7 2 19 23 27
45 13 37 13 44 -2 67 -10 14 -23 26 -29 26 -9 0 -9 -3 0 -12z"/>
<path d="M2170 4608 c-19 -6 -99 -11 -177 -12 -79 0 -146 -5 -152 -11 -11 -12
257 -11 353 1 51 6 61 4 73 -12 35 -48 -1 -104 -68 -104 -32 0 -49 -7 -76 -30
-29 -26 -31 -30 -13 -30 11 0 37 9 57 20 21 11 48 20 61 20 37 0 72 43 72 88
0 21 -6 46 -12 54 -17 22 -74 29 -118 16z"/>
<path d="M2582 4574 c-2 -39 14 -78 29 -69 5 4 9 -6 9 -22 0 -15 5 -35 11 -43
14 -21 0 96 -17 138 -17 42 -28 41 -32 -4z"/>
<path d="M2850 3308 c0 -3 6 -8 13 -11 9 -4 9 -7 0 -17 -10 -11 -15 -11 -29 1
-14 12 -16 11 -12 -6 3 -18 12 -20 70 -20 42 0 72 -5 80 -13 11 -11 10 -12 -6
-6 -13 5 -17 4 -12 -4 4 -8 1 -12 -10 -12 -29 0 -7 -12 28 -16 55 -6 66 -13
44 -26 -15 -8 -21 -8 -24 0 -5 15 -52 16 -52 1 0 -5 -4 -8 -9 -5 -11 7 -83
-22 -93 -37 -4 -6 -10 -8 -14 -4 -4 4 -13 2 -21 -4 -10 -9 -13 -8 -13 0 0 7
-4 9 -10 6 -5 -3 -10 -2 -10 3 0 5 9 12 20 15 11 3 20 10 20 17 0 6 -4 9 -9 6
-16 -10 -111 -16 -111 -7 0 5 7 12 16 15 8 3 13 10 10 14 -3 5 11 14 30 21 18
7 34 16 34 20 0 9 -51 7 -71 -3 -8 -4 -4 1 9 10 33 25 27 32 -20 24 -24 -5
-46 -6 -50 -4 -5 3 -8 1 -8 -5 0 -5 6 -12 13 -15 6 -3 1 -4 -12 -3 -13 1 -26
-4 -28 -10 -6 -17 39 -17 55 -1 9 9 12 9 12 0 0 -7 -4 -12 -10 -12 -5 0 -9 -6
-7 -12 1 -7 -4 -12 -12 -10 -9 2 -12 -4 -8 -17 3 -15 1 -18 -11 -14 -10 4 -13
2 -8 -5 5 -8 -3 -12 -24 -12 -17 0 -29 -4 -26 -9 6 -9 76 -8 151 3 25 4 31 3
16 -2 l-24 -7 27 -13 c37 -16 52 -15 124 9 50 17 66 19 77 9 8 -7 22 -10 30
-6 8 3 15 1 15 -4 0 -15 34 -12 82 7 63 24 72 37 20 29 -29 -4 -41 -3 -37 4 3
5 0 10 -7 11 -23 1 26 18 55 18 15 1 27 6 27 12 0 5 -3 8 -7 6 -5 -3 -13 1
-20 8 -9 10 -9 15 -1 17 21 7 -1 38 -27 38 -29 0 -33 -15 -7 -29 16 -9 16 -10
0 -16 -10 -4 -15 -11 -12 -16 3 -5 0 -9 -6 -9 -7 0 -9 8 -5 20 7 22 -4 26 -23
10 -9 -7 -9 -7 -2 2 15 18 12 28 -7 21 -12 -4 -11 0 5 11 27 21 30 41 3 24
-15 -9 -23 -9 -33 0 -11 9 -17 9 -26 0 -8 -8 -15 -8 -26 1 -8 7 -20 10 -26 6
-5 -3 -10 -3 -10 2 0 4 -11 8 -25 8 -14 0 -25 -3 -25 -7z"/>
<path d="M2836 3058 c-5 -26 -6 -55 -2 -63 3 -8 1 -36 -3 -63 -11 -54 -7 -64
14 -36 8 11 15 45 16 79 3 60 3 60 6 10 2 -27 6 -61 10 -75 l6 -25 7 25 c5 14
8 38 9 54 1 16 9 35 19 42 16 13 16 15 0 27 -10 8 -22 27 -28 43 -11 27 -12
28 -25 11 -13 -18 -13 -18 -17 0 -3 10 -8 -3 -12 -29z"/>
<path d="M2910 2970 c0 -11 6 -20 14 -20 9 0 12 7 9 20 -3 11 -9 20 -14 20 -5
0 -9 -9 -9 -20z"/>
<path d="M1845 3017 c1 -12 3 -25 4 -29 1 -9 41 -11 41 -2 0 13 -21 42 -33 47
-10 4 -13 -1 -12 -16z"/>
<path d="M1915 2527 c-9 -14 -17 -38 -18 -53 -2 -26 1 -29 32 -32 22 -2 30 -6
22 -11 -7 -5 -13 -30 -14 -57 -2 -48 -2 -48 31 -50 17 -1 32 2 32 7 0 5 -11 9
-25 9 -16 0 -25 6 -25 16 0 8 4 13 9 10 5 -3 12 1 15 10 4 12 2 15 -9 10 -12
-4 -13 -2 -6 13 7 13 18 17 35 14 34 -7 53 -30 38 -45 -7 -7 -12 -16 -12 -21
0 -5 10 2 21 17 21 27 21 28 3 45 -11 9 -44 24 -74 32 -37 11 -56 21 -58 34
-2 10 0 15 6 11 6 -3 13 -2 17 4 3 5 0 10 -7 10 -9 0 -8 4 2 15 34 33 87 -15
59 -53 -7 -9 -2 -7 11 5 22 21 22 23 6 47 -9 14 -23 26 -30 26 -8 0 -21 3 -29
6 -10 3 -22 -4 -32 -19z"/>
<path d="M2013 2318 c-5 -7 -11 -32 -12 -56 -2 -48 9 -57 54 -42 l30 9 -30 -2
c-22 -1 -31 3 -33 17 -3 11 0 16 7 12 6 -4 11 0 11 9 0 9 -5 13 -11 9 -7 -4
-10 1 -7 12 4 23 45 27 73 8 25 -18 36 -18 29 0 -12 30 -93 48 -111 24z"/>
<path d="M2104 2215 c-17 -12 -22 -91 -7 -106 11 -11 73 -1 73 12 0 5 -13 6
-30 3 -32 -7 -41 11 -18 34 9 9 9 12 0 12 -24 0 -11 28 16 33 30 6 52 -7 52
-32 1 -13 3 -12 12 3 9 17 7 22 -12 35 -28 19 -66 21 -86 6z"/>
<path d="M2200 2110 c-16 -10 -16 -96 -1 -114 10 -12 17 -14 25 -6 5 5 18 10
28 10 10 0 18 4 18 10 0 6 -9 6 -25 0 -21 -8 -27 -6 -32 8 -3 9 -8 21 -11 26
-3 5 0 6 6 2 6 -3 13 -2 17 4 3 5 1 10 -4 10 -23 0 -9 28 16 33 37 7 62 -11
59 -42 -2 -15 -1 -19 1 -11 3 8 10 21 16 28 24 30 -74 66 -113 42z"/>
<path d="M3843 2313 c9 -2 23 -2 30 0 6 3 -1 5 -18 5 -16 0 -22 -2 -12 -5z"/>
<path d="M1464 1521 c4 -6 2 -11 -4 -11 -7 0 -9 -7 -6 -16 3 -8 2 -12 -4 -9
-14 9 -12 -9 2 -23 17 -17 31 -15 24 4 -3 8 -2 12 4 9 5 -3 8 7 7 21 -1 15 -8
29 -16 32 -8 3 -11 0 -7 -7z"/>
<path d="M1416 1454 c-3 -9 -4 -20 -1 -25 4 -5 -1 -6 -10 -3 -9 4 -15 3 -13
-2 4 -16 -13 -54 -24 -54 -6 0 -5 -6 3 -16 11 -14 13 -14 21 0 5 9 6 21 2 28
-5 7 -2 9 9 5 11 -4 18 1 22 14 4 10 10 17 15 14 13 -8 21 27 9 41 -15 18 -25
18 -33 -2z m29 -14 c3 -6 -1 -7 -9 -4 -18 7 -21 14 -7 14 6 0 13 -4 16 -10z"/>
<path d="M3393 1557 c10 -7 24 -32 33 -57 l14 -45 -4 43 c-5 47 -20 72 -44 72
-14 0 -13 -2 1 -13z"/>
<path d="M3347 1503 c-4 -7 -3 -35 2 -66 0 -5 6 -5 11 -2 6 3 10 -1 10 -9 0
-22 19 -30 36 -15 20 17 8 25 -13 8 -15 -11 -15 -10 1 9 12 13 14 22 7 22 -7
0 -10 4 -7 8 3 5 -4 14 -14 22 -10 8 -17 17 -14 22 3 4 1 8 -5 8 -5 0 -12 -3
-14 -7z"/>
<path d="M3430 1360 c0 -5 4 -10 9 -10 6 0 13 5 16 10 3 6 -1 10 -9 10 -9 0
-16 -4 -16 -10z"/>
<path d="M3445 1340 c-3 -5 -2 -10 4 -10 5 0 13 5 16 10 3 6 2 10 -4 10 -5 0
-13 -4 -16 -10z"/>
<path d="M1315 1149 c-4 -6 -4 -13 -1 -16 8 -8 36 5 36 17 0 13 -27 13 -35 -1z"/>
<path d="M1343 997 c0 -18 -59 -104 -75 -109 -6 -2 5 -14 25 -27 23 -14 44
-20 56 -16 21 6 36 38 26 55 -3 5 1 10 9 10 8 0 20 9 26 20 10 18 6 25 -20 50
-35 33 -47 37 -47 17z m43 -43 c-3 -9 -6 -18 -6 -20 0 -2 -7 -4 -15 -4 -13 0
-14 4 -5 20 13 24 35 27 26 4z m-50 -82 c-24 -24 -31 -6 -10 25 16 24 19 26
22 9 2 -10 -3 -25 -12 -34z"/>
<path d="M1443 938 c6 -18 -40 -108 -60 -115 -14 -6 -14 -8 3 -20 19 -14 45
-18 43 -5 -5 28 14 54 34 46 13 -5 14 -10 5 -30 -6 -13 -15 -24 -20 -24 -17 0
-7 -17 18 -29 20 -9 25 -9 21 1 -6 18 40 108 60 115 14 6 14 8 -3 20 -19 14
-48 18 -40 5 9 -15 -19 -51 -33 -43 -14 9 -7 51 10 51 18 0 8 17 -17 29 -20 9
-25 9 -21 -1z"/>
<path d="M3410 929 c0 -8 7 -41 14 -74 8 -33 12 -63 10 -67 -7 -11 8 -10 26 2
8 5 10 10 4 10 -22 0 -24 29 -3 41 17 9 21 7 26 -10 4 -16 9 -18 28 -9 22 10
22 11 -19 47 -81 71 -86 75 -86 60z m46 -76 c-7 -7 -26 7 -26 19 0 6 6 6 15
-2 9 -7 13 -15 11 -17z"/>
<path d="M3324 894 c-7 -3 -10 -13 -7 -24 3 -10 0 -27 -5 -37 -9 -16 -11 -15
-17 10 -4 15 -10 27 -14 27 -13 0 -46 -29 -34 -30 14 0 63 -90 63 -114 0 -13
4 -14 25 -4 25 11 34 28 15 28 -5 0 -14 9 -20 21 -11 19 -10 20 10 9 12 -6 24
-17 26 -25 5 -11 11 -11 30 -3 13 6 24 14 24 17 0 4 -20 17 -45 31 -46 25 -54
44 -35 81 11 19 6 22 -16 13z"/>
<path d="M1550 819 c-13 -34 -30 -64 -38 -67 -11 -4 -8 -8 9 -18 32 -18 38
-17 37 4 -1 27 40 112 54 112 12 1 -19 30 -32 30 -3 0 -16 -27 -30 -61z"/>
<path d="M1616 789 c-10 -33 -25 -63 -33 -66 -12 -5 -12 -7 -1 -14 16 -11 31
-12 25 -1 -3 4 3 27 13 52 l17 45 6 -30 c4 -17 9 -47 13 -67 3 -21 10 -36 14
-33 4 2 17 32 29 65 12 33 26 60 32 60 5 0 9 5 9 10 0 6 -6 10 -13 10 -8 0
-20 -19 -27 -42 l-13 -43 -11 55 c-16 77 -36 77 -60 -1z"/>
<path d="M3204 838 c-20 -9 -20 -10 8 -70 16 -33 27 -67 24 -74 -7 -17 2 -17
33 0 17 9 20 15 11 21 -13 8 -40 65 -49 106 -5 22 -9 25 -27 17z"/>
<path d="M1750 786 c0 -35 -30 -116 -43 -116 -7 0 -5 -5 3 -10 19 -13 33 -13
25 0 -7 12 15 91 25 85 4 -2 12 -29 19 -60 7 -30 16 -53 20 -51 4 3 16 32 26
66 10 33 22 60 27 60 4 0 8 5 8 10 0 6 -6 10 -14 10 -8 0 -17 -15 -20 -35 -9
-44 -22 -38 -31 14 -4 27 -13 41 -26 44 -15 4 -19 0 -19 -17z"/>
<path d="M3050 779 c-16 -7 -21 -12 -13 -17 14 -9 43 -86 43 -114 0 -16 5 -19
25 -14 63 16 73 23 67 53 l-5 28 -9 -27 c-16 -47 -42 -35 -62 27 -9 30 -14 60
-11 65 8 12 -2 12 -35 -1z"/>
<path d="M1866 723 c-3 -27 -13 -60 -20 -75 -14 -27 -14 -28 22 -38 51 -14 60
-13 72 10 7 14 7 20 0 20 -5 0 -10 -4 -10 -10 0 -5 -12 -10 -26 -10 -20 0 -25
4 -22 22 4 27 28 36 29 11 1 -13 3 -11 9 7 14 43 12 54 -5 40 -12 -10 -15 -10
-15 3 0 47 33 56 50 13 8 -20 9 -19 9 5 1 21 -5 28 -26 33 -16 4 -35 9 -44 12
-13 4 -18 -6 -23 -43z"/>
<path d="M2960 701 c0 -27 -3 -63 -7 -81 -5 -26 -3 -32 8 -28 8 3 13 13 11 23
-2 10 2 21 9 26 15 9 42 -9 33 -22 -6 -10 29 -13 38 -3 7 6 -74 134 -84 134
-5 0 -8 -22 -8 -49z m23 -26 c4 -8 2 -17 -3 -20 -6 -4 -10 3 -10 14 0 25 6 27
13 6z"/>
<path d="M1984 731 c7 -11 -13 -112 -25 -127 -12 -14 -1 -24 26 -24 18 0 21 4
17 25 -2 14 0 25 6 25 13 0 23 -26 16 -45 -4 -9 0 -15 9 -15 9 0 23 -3 32 -6
13 -6 13 1 -5 45 -26 66 -26 65 11 89 l31 19 -26 5 c-19 4 -26 1 -24 -9 2 -8
-7 -22 -20 -30 -21 -15 -22 -14 -16 3 4 11 11 24 16 30 5 8 1 14 -14 18 -32 8
-40 7 -34 -3z"/>
<path d="M2810 710 c-43 -43 -10 -140 48 -140 39 0 55 14 56 49 1 27 -2 31
-26 31 -16 0 -28 -4 -28 -10 0 -5 5 -10 10 -10 6 0 10 -11 10 -25 0 -30 -25
-34 -39 -6 -20 36 -24 96 -8 109 11 10 20 8 43 -10 24 -19 27 -20 21 -4 -4 10
-7 22 -7 27 0 17 -60 9 -80 -11z"/>
<path d="M2673 684 c-54 -54 2 -161 70 -135 18 7 26 19 29 45 4 37 -1 41 -36
27 -14 -5 -16 -10 -8 -15 17 -10 15 -46 -3 -46 -25 0 -39 43 -36 108 1 26 26
29 53 5 17 -15 18 -15 18 9 0 21 -5 25 -32 25 -20 0 -41 -9 -55 -23z"/>
<path d="M2129 631 c-33 -64 -34 -70 -17 -74 15 -4 18 -1 13 13 -7 22 7 33 29
24 19 -7 21 -31 4 -37 -7 -2 2 -6 20 -9 25 -3 32 -1 28 9 -3 7 -11 42 -17 78
-6 36 -14 65 -18 65 -3 0 -22 -31 -42 -69z m27 -18 c-11 -11 -17 4 -9 23 7 18
8 18 11 1 2 -10 1 -21 -2 -24z"/>
<path d="M2270 668 c1 -21 2 -22 14 -5 7 9 16 17 20 17 9 0 7 -58 -3 -102 -7
-29 -5 -38 6 -42 30 -12 33 -4 33 72 l1 77 19 -24 20 -23 0 26 c0 25 -2 26
-55 26 -50 0 -55 -2 -55 -22z"/>
<path d="M2400 622 c4 -38 10 -74 14 -80 10 -16 63 -15 73 1 14 22 20 147 7
147 -9 0 -11 -18 -7 -57 3 -43 1 -63 -10 -78 -25 -33 -42 -5 -42 71 0 58 -2
64 -20 64 -20 0 -20 -4 -15 -68z"/>
<path d="M2524 673 c3 -10 7 -46 8 -80 2 -44 7 -63 16 -63 8 0 11 7 9 18 -3 9
-8 35 -11 57 l-6 40 22 -30 c13 -16 33 -41 46 -55 l22 -25 -2 77 c-2 46 -7 78
-13 78 -7 0 -9 -16 -7 -37 l4 -38 -26 30 c-14 17 -25 33 -26 38 0 4 -9 7 -21
7 -15 0 -19 -5 -15 -17z"/>
<path d="M5620 3950 l0 -1460 1153 -2 c633 -2 1353 -2 1600 0 l447 2 0 354 0
353 231 242 c127 132 234 241 238 241 4 0 144 -268 312 -594 l304 -595 545 -3
c300 -2 744 -2 988 0 l442 3 0 539 0 540 273 0 c385 0 560 18 725 74 306 104
504 336 557 654 11 66 13 -60 14 -865 l1 -943 455 0 455 0 0 539 0 539 358 5
c423 7 528 21 710 96 189 78 332 214 418 396 127 271 124 649 -7 914 -88 179
-234 303 -434 370 -180 60 -197 61 -1117 61 l-838 0 -1 -372 c-1 -338 -2 -366
-14 -301 -37 203 -140 384 -278 489 -117 89 -273 148 -452 173 -51 7 -546 11
-1508 11 l-1432 -1 -465 -544 c-256 -300 -468 -545 -472 -545 -5 0 -8 245 -8
545 l0 545 -450 0 -450 0 0 -1100 0 -1100 -700 0 -700 0 0 1100 0 1100 -450 0
-450 0 0 -1460z m5348 -666 l-3 -705 -525 858 c-289 472 -525 863 -525 869 0
7 236 257 525 555 l525 543 3 -707 c1 -389 1 -1025 0 -1413z m1294 1526 c191
-28 293 -125 306 -291 7 -103 -17 -171 -86 -240 -87 -87 -141 -101 -399 -107
l-203 -4 0 326 0 326 158 0 c86 0 187 -5 224 -10z m2511 -5 c95 -17 156 -45
198 -93 136 -154 102 -392 -70 -485 -79 -43 -164 -57 -363 -57 l-178 0 0 325
0 325 168 0 c97 -1 200 -7 245 -15z"/>
<path d="M11410 2055 c-6 -8 -9 -23 -5 -35 11 -35 75 -23 75 15 0 2 -7 11 -16
19 -19 20 -38 20 -54 1z"/>
<path d="M11650 2055 c-20 -25 -8 -50 25 -50 21 0 31 5 33 18 4 21 -14 47 -33
47 -7 0 -18 -7 -25 -15z"/>
<path d="M5590 1720 l0 -340 210 0 c203 0 210 1 210 20 0 19 -8 20 -182 22
l-183 3 -3 318 -2 317 -25 0 -25 0 0 -340z"/>
<path d="M7480 1720 l0 -340 25 0 c18 0 25 5 25 19 0 19 2 19 43 -4 74 -43
167 -29 219 34 74 88 58 322 -27 389 -52 42 -163 36 -212 -10 l-23 -21 0 136
0 137 -25 0 -25 0 0 -340z m239 67 c48 -24 66 -72 66 -177 0 -104 -12 -140
-56 -173 -52 -38 -141 -20 -174 36 -23 39 -32 173 -16 234 21 79 108 117 180
80z"/>
<path d="M9780 1720 l0 -340 30 0 30 0 0 93 0 92 76 93 c42 50 79 92 83 92 3
0 53 -83 111 -185 103 -180 106 -184 138 -185 18 0 31 3 29 8 -3 4 -57 97
-122 207 -94 162 -115 203 -106 217 6 9 52 68 102 130 82 101 90 113 70 116
-12 2 -28 1 -35 -1 -7 -3 -87 -96 -177 -207 l-164 -203 -3 207 -2 206 -30 0
-30 0 0 -340z"/>
<path d="M10900 1720 c0 -333 0 -340 20 -340 13 0 20 7 20 20 0 25 4 25 41 -2
42 -32 154 -33 196 -2 50 36 75 101 75 201 0 48 -5 107 -11 130 -31 112 -165
156 -266 87 l-35 -23 0 134 c0 128 -1 135 -20 135 -20 0 -20 -7 -20 -340z
m239 65 c45 -23 64 -76 64 -175 0 -137 -37 -193 -128 -193 -89 0 -128 56 -128
188 0 94 22 158 62 180 34 19 95 19 130 0z"/>
<path d="M12390 1720 l0 -340 25 0 c24 0 25 2 25 64 0 63 1 65 52 125 46 53
53 58 64 43 6 -9 41 -65 78 -124 61 -97 71 -108 97 -108 16 0 29 2 29 5 0 2
-40 66 -89 142 l-90 138 32 37 c18 20 52 60 75 88 l44 50 -34 0 c-30 0 -43
-12 -143 -127 l-110 -127 -3 237 -2 237 -25 0 -25 0 0 -340z"/>
<path d="M6227 1835 c-85 -30 -122 -101 -121 -230 1 -120 32 -181 109 -216 73
-34 177 -19 232 33 22 21 22 22 4 35 -17 12 -24 10 -57 -12 -28 -19 -50 -25
-89 -25 -74 0 -115 29 -138 99 -10 30 -16 60 -13 68 4 10 40 13 161 13 l155 0
0 53 c0 57 -25 121 -58 150 -25 23 -88 46 -122 46 -14 0 -42 -6 -63 -14z m130
-55 c37 -22 54 -50 63 -102 l7 -38 -138 0 -138 0 6 33 c11 58 43 105 83 120
32 12 86 6 117 -13z"/>
<path d="M6756 1835 c-21 -7 -43 -18 -49 -24 -17 -17 -27 -13 -27 9 0 15 -7
20 -25 20 l-25 0 0 -230 0 -230 25 0 25 0 0 148 c0 163 8 207 45 242 33 31
109 39 154 15 52 -26 61 -62 61 -245 l0 -160 25 0 25 0 0 155 c0 165 8 203 49
239 29 26 109 33 148 13 53 -28 63 -65 63 -246 l0 -161 25 0 25 0 0 158 c0
175 -9 223 -49 263 -60 60 -186 60 -251 -1 l-30 -28 -28 28 c-28 27 -86 50
-127 50 -11 -1 -37 -7 -59 -15z"/>
<path d="M8075 1841 c-39 -10 -68 -26 -85 -46 -11 -13 -11 -18 2 -31 13 -14
19 -13 53 10 29 20 50 26 92 26 92 0 133 -37 133 -119 l0 -39 -107 -4 c-123
-4 -163 -19 -189 -70 -23 -44 -14 -121 16 -153 45 -48 166 -60 235 -25 47 24
45 24 45 5 0 -9 9 -15 25 -15 l25 0 0 178 c0 198 -8 231 -66 264 -35 20 -134
31 -179 19z m195 -291 c0 -85 -26 -115 -112 -134 -40 -9 -110 10 -130 35 -20
24 -23 70 -7 100 17 33 67 48 162 49 l87 0 0 -50z"/>
<path d="M8585 1835 c-81 -29 -110 -99 -103 -252 4 -108 19 -148 71 -187 42
-31 153 -30 196 2 16 12 33 22 37 22 12 0 -3 -113 -19 -153 -31 -72 -146 -97
-211 -46 -29 23 -40 24 -55 6 -24 -29 67 -77 146 -77 69 0 127 32 161 88 l27
47 3 278 4 277 -26 0 c-21 0 -26 -5 -26 -27 0 -25 -1 -25 -19 -9 -24 22 -87
45 -121 45 -14 0 -43 -6 -65 -14z m134 -50 c45 -23 64 -76 64 -175 0 -137 -37
-193 -128 -193 -89 0 -128 56 -128 188 0 94 22 158 62 180 34 19 95 19 130 0z"/>
<path d="M9115 1846 c-5 -2 -22 -7 -36 -10 -14 -3 -38 -17 -53 -31 -27 -25
-27 -27 -11 -45 18 -20 18 -19 43 5 29 29 75 40 140 32 64 -7 92 -40 92 -108
l0 -49 -87 0 c-106 0 -152 -12 -187 -46 -51 -52 -43 -153 15 -195 46 -33 151
-38 212 -11 38 17 47 18 47 6 0 -8 10 -14 25 -14 l25 0 0 189 c0 176 -1 190
-21 215 -11 14 -34 33 -50 41 -28 15 -134 29 -154 21z m175 -307 c0 -54 -3
-64 -29 -90 -53 -52 -193 -41 -220 17 -15 33 -14 49 4 84 19 37 55 48 163 49
l82 1 0 -61z"/>
<path d="M10487 1836 c-52 -19 -67 -33 -93 -91 -20 -41 -24 -67 -24 -140 0
-130 29 -185 113 -220 68 -28 146 -18 214 28 39 26 40 32 12 48 -17 9 -25 7
-45 -12 -35 -33 -136 -38 -180 -11 -37 24 -64 77 -64 126 l0 36 161 0 161 0
-7 57 c-12 98 -50 153 -122 179 -48 17 -78 17 -126 0z m149 -67 c28 -26 37
-44 49 -96 l7 -33 -136 0 -136 0 0 25 c0 43 27 94 62 115 44 28 118 23 154
-11z"/>
<path d="M11965 1841 c-40 -10 -66 -25 -88 -49 -18 -20 -18 -21 3 -32 19 -10
26 -8 46 11 20 19 39 24 93 27 64 4 70 2 101 -25 27 -24 33 -38 38 -81 l5 -52
-89 0 c-108 0 -159 -13 -196 -50 -24 -24 -28 -36 -28 -83 0 -63 24 -101 76
-123 50 -21 142 -18 189 6 47 24 45 24 45 5 0 -9 10 -15 26 -15 l26 0 -4 188
c-3 204 -9 227 -68 257 -33 17 -135 27 -175 16z m195 -285 c0 -100 -40 -139
-143 -139 -74 0 -111 24 -115 76 -7 78 38 106 171 107 l87 0 0 -44z"/>
<path d="M12971 1841 c-40 -11 -85 -42 -89 -63 -5 -27 27 -28 64 -3 28 19 50
25 91 25 92 0 133 -37 133 -119 l0 -39 -107 -4 c-157 -6 -203 -38 -203 -141 0
-52 27 -93 76 -113 50 -21 142 -18 189 6 47 24 45 24 45 5 0 -9 9 -15 25 -15
l25 0 0 178 c0 198 -8 231 -66 264 -36 21 -134 31 -183 19z m199 -285 c0 -89
-29 -125 -110 -139 -48 -9 -111 8 -132 34 -20 24 -23 70 -7 100 17 33 67 48
162 49 l87 0 0 -44z"/>
<path d="M13526 1836 c-21 -8 -43 -19 -49 -25 -17 -17 -27 -13 -27 9 0 15 -7
20 -25 20 l-25 0 0 -230 0 -230 25 0 25 0 0 155 c0 165 8 203 49 239 29 26
109 33 148 13 53 -28 63 -65 63 -246 l0 -161 25 0 25 0 0 168 c0 154 -2 171
-22 212 -13 25 -37 53 -54 62 -43 25 -111 31 -158 14z"/>
<path d="M11410 1610 l0 -230 25 0 25 0 0 230 0 230 -25 0 -25 0 0 -230z"/>
<path d="M11650 1540 c0 -287 -1 -301 -20 -320 -11 -11 -33 -20 -50 -20 -23 0
-30 -4 -30 -20 0 -31 79 -28 117 4 l28 24 3 316 3 316 -26 0 -25 0 0 -300z"/>
<path d="M13820 956 c-16 -43 -260 -792 -260 -799 0 -4 11 -7 24 -7 23 0 31
21 160 408 75 224 136 410 136 415 0 4 -11 7 -25 7 -18 0 -28 -7 -35 -24z"/>
<path d="M5590 566 l0 -346 25 0 25 0 0 144 0 144 138 4 c148 4 174 12 224 65
35 37 48 73 48 133 0 60 -13 96 -48 133 -52 55 -74 61 -249 65 l-163 4 0 -346z
m329 276 c55 -27 75 -63 76 -132 0 -68 -21 -104 -76 -132 -27 -14 -60 -18
-156 -18 l-123 0 0 150 0 150 123 0 c96 0 129 -4 156 -18z"/>
<path d="M8530 775 c0 -74 -2 -135 -5 -135 -2 0 -21 11 -41 25 -50 34 -136 35
-185 2 -58 -38 -79 -95 -79 -212 0 -88 3 -108 25 -152 32 -63 69 -83 153 -83
50 0 66 4 90 25 37 31 42 31 42 0 0 -20 5 -25 25 -25 l25 0 0 345 0 345 -25 0
-25 0 0 -135z m-53 -157 c32 -30 47 -82 47 -163 0 -133 -39 -190 -129 -190
-92 0 -128 55 -127 196 0 96 21 146 72 172 43 22 105 15 137 -15z"/>
<path d="M10570 566 l0 -346 143 0 c78 0 160 5 181 10 85 19 131 81 131 175
-1 73 -23 119 -71 147 l-35 21 27 18 c45 29 69 77 69 139 0 71 -26 117 -86
150 -41 23 -55 25 -201 28 l-158 4 0 -346z m314 280 c70 -29 98 -115 60 -187
-24 -47 -66 -59 -204 -59 l-120 0 0 130 0 130 115 0 c76 0 127 -5 149 -14z
m13 -315 c91 -42 103 -174 20 -235 -25 -18 -45 -21 -163 -24 l-134 -4 0 141 0
141 118 0 c93 0 125 -4 159 -19z"/>
<path d="M14210 648 c0 -239 -2 -267 -20 -306 -15 -33 -29 -47 -62 -62 -56
-26 -85 -25 -141 4 -44 22 -47 22 -62 6 -15 -16 -14 -20 16 -41 35 -25 121
-37 183 -25 45 9 91 47 116 97 18 35 20 60 20 314 l0 275 -25 0 -25 0 0 -262z"/>
<path d="M16190 566 l0 -346 30 0 30 0 0 144 0 144 133 4 c122 3 136 5 177 30
62 36 90 88 90 168 0 80 -28 132 -90 168 -43 26 -53 27 -207 31 l-163 3 0
-346z m329 276 c55 -27 76 -64 76 -132 0 -68 -21 -105 -76 -132 -27 -14 -59
-18 -151 -18 l-118 0 0 150 0 150 118 0 c92 0 124 -4 151 -18z"/>
<path d="M19015 890 c-14 -44 44 -69 65 -29 9 15 8 24 -1 35 -18 21 -57 18
-64 -6z"/>
<path d="M20610 565 c0 -331 1 -345 19 -345 17 0 19 11 23 168 4 176 10 203
57 239 30 23 96 26 136 7 57 -27 65 -56 65 -249 l0 -165 25 0 25 0 0 176 c0
196 -7 226 -64 266 -22 16 -49 24 -96 26 -57 3 -70 1 -103 -22 -21 -14 -40
-26 -42 -26 -3 0 -5 61 -5 135 0 128 -1 135 -20 135 -20 0 -20 -7 -20 -345z"/>
<path d="M19810 760 l0 -70 -30 0 c-23 0 -30 -4 -30 -20 0 -15 7 -20 29 -20
l30 0 3 -185 c3 -184 3 -185 29 -211 18 -18 41 -28 73 -31 44 -5 46 -5 46 21
0 23 -4 26 -34 26 -60 0 -66 20 -66 212 l0 168 50 0 c43 0 50 3 50 20 0 17 -7
20 -50 20 l-50 0 0 70 c0 68 -1 70 -25 70 -24 0 -25 -2 -25 -70z"/>
<path d="M6251 673 c-124 -61 -136 -340 -18 -427 33 -25 147 -34 200 -17 39
13 82 55 72 70 -10 17 -33 13 -65 -10 -17 -13 -49 -24 -77 -26 -85 -7 -144 42
-159 135 l-7 42 162 0 161 0 0 43 c0 91 -41 166 -107 193 -44 19 -121 17 -162
-3z m155 -48 c34 -22 55 -58 61 -105 l6 -41 -134 3 c-154 3 -158 6 -117 88 38
75 118 99 184 55z"/>
<path d="M6680 455 l0 -235 24 0 25 0 3 174 c3 200 10 219 86 246 37 13 47 13
84 0 76 -27 83 -46 86 -246 l3 -174 25 0 26 0 -4 184 c-3 205 -6 215 -79 264
-46 32 -148 28 -197 -6 l-32 -23 0 25 c0 21 -5 26 -25 26 l-25 0 0 -235z"/>
<path d="M7280 671 c-23 -12 -44 -36 -60 -67 -22 -42 -25 -61 -25 -149 1 -170
47 -235 171 -235 49 0 69 5 98 25 l36 24 0 -60 c0 -116 -51 -173 -148 -166
-32 2 -63 12 -80 24 -25 18 -30 19 -48 6 -18 -14 -18 -15 11 -39 36 -29 77
-38 153 -32 71 5 112 31 141 91 20 41 21 60 21 320 l0 277 -25 0 c-20 0 -25
-5 -25 -25 l0 -24 -36 24 c-47 32 -132 34 -184 6z m146 -36 c49 -20 73 -78 74
-174 0 -129 -31 -188 -107 -198 -90 -12 -141 43 -151 163 -13 165 68 258 184
209z"/>
<path d="M7773 669 c-47 -23 -60 -46 -39 -67 13 -13 18 -12 46 11 55 46 145
48 196 3 22 -18 28 -34 32 -79 l4 -57 -106 0 c-117 0 -149 -10 -185 -56 -42
-53 -21 -152 39 -188 42 -24 175 -22 218 4 32 20 32 20 32 0 0 -15 7 -20 25
-20 l25 0 0 181 c0 212 -7 236 -74 269 -58 28 -156 27 -213 -1z m237 -276 c0
-94 -50 -137 -152 -130 -73 4 -108 33 -108 86 1 71 35 90 163 91 l97 0 0 -47z"/>
<path d="M8805 676 c-16 -7 -39 -23 -49 -35 -19 -21 -19 -22 0 -35 16 -12 22
-11 46 9 35 29 77 39 135 30 67 -10 93 -40 93 -109 l0 -54 -114 -4 c-98 -3
-119 -6 -143 -24 -61 -46 -67 -137 -13 -197 27 -31 32 -32 114 -36 73 -3 91 0
121 18 34 20 35 20 35 1 0 -15 7 -20 25 -20 l25 0 0 185 c0 215 -6 235 -73
266 -50 22 -157 25 -202 5z m225 -286 c0 -65 -15 -95 -58 -116 -45 -21 -143
-16 -171 10 -43 39 -33 117 19 143 15 8 63 13 118 13 l92 0 0 -50z"/>
<path d="M9297 670 c-45 -25 -56 -46 -35 -67 14 -13 18 -12 43 11 50 47 166
44 210 -5 14 -14 19 -36 20 -72 l0 -52 -115 -5 c-87 -4 -121 -9 -141 -23 -71
-48 -65 -183 11 -222 46 -24 174 -20 216 6 l34 21 0 -21 c0 -16 6 -21 25 -21
l25 0 0 178 c0 195 -7 225 -63 266 -42 31 -177 34 -230 6z m240 -290 c-6 -68
-17 -87 -64 -107 -62 -25 -163 -10 -183 27 -14 26 -12 83 3 102 24 30 53 37
151 38 l99 0 -6 -60z"/>
<path d="M9770 455 l0 -235 24 0 25 0 3 174 c3 200 10 219 86 246 37 13 47 13
84 0 76 -27 83 -46 86 -246 l4 -174 25 0 25 0 -4 184 c-3 205 -6 215 -79 264
-46 32 -148 28 -197 -6 l-32 -23 0 25 c0 21 -5 26 -25 26 l-25 0 0 -235z"/>
<path d="M11245 676 c-16 -7 -39 -23 -49 -35 -18 -20 -18 -23 -4 -38 15 -15
19 -14 48 10 58 49 151 48 202 -3 23 -24 28 -37 28 -79 l0 -51 -109 0 c-96 0
-112 -3 -142 -23 -18 -12 -39 -34 -46 -47 -29 -57 -6 -142 46 -173 43 -25 175
-24 219 3 32 20 32 20 32 0 0 -15 7 -20 25 -20 l25 0 0 181 c0 212 -8 240 -74
270 -49 22 -156 25 -201 5z m225 -290 c0 -91 -57 -134 -163 -123 -92 8 -128
88 -68 148 29 28 32 29 130 29 l101 0 0 -54z"/>
<path d="M11700 455 l0 -235 25 0 25 0 0 148 c0 81 5 163 10 183 22 79 108
120 174 81 33 -19 35 -20 50 -3 26 29 -11 54 -87 59 -54 3 -67 0 -100 -22 -46
-32 -47 -32 -47 -1 0 20 -5 25 -25 25 l-25 0 0 -235z"/>
<path d="M12122 669 c-50 -25 -61 -44 -40 -66 14 -13 18 -12 43 11 50 47 166
44 210 -5 14 -14 19 -36 20 -72 l0 -52 -110 -5 c-116 -5 -140 -13 -174 -56
-42 -53 -20 -158 39 -189 46 -24 174 -20 216 6 l34 21 0 -21 c0 -16 6 -21 25
-21 l25 0 0 184 c0 174 -1 185 -23 217 -32 48 -79 69 -157 69 -46 0 -77 -6
-108 -21z m238 -276 c0 -62 -17 -94 -60 -115 -61 -31 -169 -18 -190 22 -14 26
-12 83 3 102 24 30 53 37 150 38 l97 0 0 -47z"/>
<path d="M12590 455 l0 -235 24 0 25 0 3 174 c3 200 10 219 86 246 37 13 47
13 84 0 76 -27 83 -46 86 -246 l3 -174 25 0 26 0 -4 183 c-3 158 -6 186 -22
214 -45 73 -160 96 -243 48 l-43 -24 0 25 c0 19 -5 24 -25 24 l-25 0 0 -235z"/>
<path d="M13190 671 c-22 -12 -44 -36 -60 -67 -22 -42 -25 -61 -25 -149 0
-170 47 -235 171 -235 49 0 69 5 98 25 l36 24 0 -60 c0 -117 -50 -173 -148
-166 -33 2 -63 12 -81 25 -28 20 -29 20 -45 3 -16 -18 -15 -20 16 -42 28 -21
45 -24 118 -24 74 0 89 3 119 24 66 47 71 72 71 384 l0 277 -25 0 c-20 0 -25
-5 -25 -25 l0 -24 -36 24 c-47 32 -132 34 -184 6z m146 -36 c49 -20 74 -78 74
-175 0 -131 -30 -187 -107 -197 -88 -12 -140 42 -150 156 -16 169 66 265 183
216z"/>
<path d="M14493 674 c-17 -9 -39 -24 -49 -35 -17 -18 -16 -20 2 -33 16 -12 22
-11 46 9 55 47 181 41 214 -10 9 -13 16 -46 17 -72 l2 -48 -117 -5 c-98 -4
-121 -8 -145 -26 -67 -49 -63 -165 6 -211 47 -31 169 -33 219 -3 40 25 42 25
42 0 0 -13 7 -20 20 -20 19 0 20 7 20 194 0 183 -1 195 -22 221 -12 15 -36 34
-54 41 -45 19 -161 18 -201 -2z m233 -290 c-3 -31 -11 -65 -17 -76 -24 -46
-135 -63 -199 -30 -43 21 -59 66 -39 108 21 43 53 54 163 54 l99 0 -7 -56z"/>
<path d="M15004 671 c-90 -41 -97 -167 -11 -213 11 -5 61 -16 113 -23 104 -14
120 -22 129 -66 13 -60 -50 -109 -137 -109 -49 1 -111 21 -137 44 -16 15 -19
15 -34 -2 -16 -18 -16 -20 1 -35 48 -44 197 -64 269 -36 69 26 103 96 81 165
-18 52 -55 71 -163 83 -78 9 -93 14 -112 36 -26 29 -28 42 -13 80 21 54 132
70 211 30 28 -15 33 -15 46 -2 21 21 11 32 -44 51 -62 21 -148 20 -199 -3z"/>
<path d="M15475 676 c-16 -7 -39 -23 -49 -35 -19 -21 -19 -22 0 -35 16 -12 22
-11 46 9 15 13 42 26 59 30 47 11 119 -4 144 -29 23 -23 43 -112 28 -126 -4
-5 -58 -10 -120 -12 -130 -4 -158 -17 -183 -86 -13 -37 -13 -47 0 -84 23 -65
65 -88 159 -88 58 0 84 5 109 20 40 25 42 25 42 0 0 -13 7 -20 20 -20 19 0 20
7 20 188 0 211 -6 234 -73 265 -43 21 -159 22 -202 3z m230 -293 c-9 -74 -16
-87 -61 -108 -47 -22 -144 -17 -173 9 -43 39 -33 117 19 143 15 8 64 13 124
13 l98 0 -7 -57z"/>
<path d="M16850 669 c-70 -43 -92 -95 -94 -214 -1 -75 3 -98 22 -137 36 -72
71 -92 167 -96 75 -3 83 -1 129 28 46 30 47 32 31 50 -16 18 -18 18 -52 -6
-96 -65 -213 -26 -242 81 -19 68 -26 65 149 65 l160 0 0 53 c0 73 -37 146 -89
175 -52 30 -133 30 -181 1z m146 -39 c46 -23 74 -67 74 -119 l0 -32 -132 3
-133 3 3 35 c4 48 31 89 72 111 44 24 64 24 116 -1z"/>
<path d="M17280 455 l0 -235 25 0 25 0 0 158 c0 134 3 163 20 200 36 79 144
95 206 31 l29 -30 3 -180 3 -179 24 0 24 0 3 174 c3 200 10 219 86 246 37 13
47 13 84 0 76 -27 83 -46 86 -246 l3 -174 25 0 24 0 0 164 c0 95 -5 177 -11
197 -24 70 -82 109 -163 109 -56 0 -93 -14 -128 -48 l-28 -26 -27 26 c-42 39
-66 48 -125 48 -38 0 -65 -7 -95 -25 l-43 -24 0 25 c0 19 -5 24 -25 24 l-25 0
0 -235z"/>
<path d="M18196 667 c-27 -15 -48 -38 -65 -72 -23 -43 -26 -62 -26 -145 1
-109 21 -161 77 -202 28 -20 45 -23 119 -23 78 0 89 2 128 29 37 26 40 31 27
44 -14 14 -21 13 -68 -11 -29 -15 -68 -27 -87 -27 -76 0 -133 54 -147 138 l-7
42 162 0 161 0 0 53 c-1 86 -46 161 -113 186 -47 18 -118 13 -161 -12z m160
-42 c34 -22 55 -58 61 -105 l6 -41 -134 3 c-154 3 -158 6 -117 88 38 75 118
99 184 55z"/>
<path d="M18630 455 l0 -235 25 0 25 0 0 158 c0 186 14 232 74 257 46 20 64
19 108 -4 36 -18 38 -18 54 0 15 17 14 19 -17 38 -49 30 -120 28 -176 -4 l-43
-26 0 26 c0 20 -5 25 -25 25 l-25 0 0 -235z"/>
<path d="M19020 455 l0 -235 25 0 25 0 0 235 0 235 -25 0 -25 0 0 -235z"/>
<path d="M19260 455 l0 -235 24 0 25 0 3 174 c3 200 10 219 86 246 37 13 47
13 84 0 76 -27 83 -46 86 -246 l4 -174 25 0 25 0 -4 184 c-3 205 -6 215 -79
264 -46 32 -148 28 -197 -6 l-32 -23 0 25 c0 21 -5 26 -25 26 l-25 0 0 -235z"/>
<path d="M20145 676 c-16 -7 -39 -23 -50 -36 -19 -21 -19 -22 -1 -36 17 -12
22 -10 47 10 35 30 78 40 132 32 70 -11 97 -44 97 -120 l0 -46 -100 0 c-118 0
-161 -14 -190 -62 -27 -44 -26 -97 3 -139 32 -47 61 -59 147 -59 57 0 83 5
108 20 32 20 32 20 32 0 0 -15 7 -20 25 -20 l25 0 0 185 c0 215 -6 235 -73
266 -50 22 -157 25 -202 5z m225 -286 c0 -65 -15 -95 -58 -116 -49 -23 -145
-16 -175 14 -33 33 -30 97 6 128 26 22 37 24 128 24 l99 0 0 -50z"/>
</g>
</svg>
